<svg width="367" height="46" viewBox="0 0 367 46" fill="none" xmlns="http://www.w3.org/2000/svg">
<path d="M296.66 34.192C297.342 34.192 297.934 34.3253 298.436 34.592C298.948 34.848 299.342 35.2427 299.62 35.776C299.908 36.3093 300.052 36.9813 300.052 37.792V42.672H298.916V37.904C298.916 37.0187 298.702 36.352 298.276 35.904C297.86 35.4453 297.268 35.216 296.5 35.216C295.924 35.216 295.422 35.3387 294.996 35.584C294.58 35.8187 294.254 36.1653 294.02 36.624C293.796 37.072 293.684 37.616 293.684 38.256V42.672H292.548V37.904C292.548 37.0187 292.334 36.352 291.908 35.904C291.481 35.4453 290.884 35.216 290.116 35.216C289.55 35.216 289.054 35.3387 288.628 35.584C288.201 35.8187 287.87 36.1653 287.636 36.624C287.412 37.072 287.3 37.616 287.3 38.256V42.672H286.164V34.272H287.252V36.544L287.076 36.144C287.332 35.536 287.742 35.0613 288.308 34.72C288.884 34.368 289.561 34.192 290.34 34.192C291.161 34.192 291.86 34.4 292.436 34.816C293.012 35.2214 293.385 35.8347 293.556 36.656L293.108 36.48C293.353 35.7973 293.785 35.248 294.404 34.832C295.033 34.4053 295.785 34.192 296.66 34.192Z" fill="#A5A9AC"/>
<path d="M279.557 42.752C278.746 42.752 278.015 42.5707 277.365 42.208C276.725 41.8347 276.218 41.328 275.845 40.688C275.471 40.0373 275.285 39.296 275.285 38.464C275.285 37.6213 275.471 36.88 275.845 36.24C276.218 35.6 276.725 35.0987 277.365 34.736C278.005 34.3733 278.735 34.192 279.557 34.192C280.389 34.192 281.125 34.3733 281.765 34.736C282.415 35.0987 282.922 35.6 283.285 36.24C283.658 36.88 283.845 37.6213 283.845 38.464C283.845 39.296 283.658 40.0373 283.285 40.688C282.922 41.328 282.415 41.8347 281.765 42.208C281.114 42.5707 280.378 42.752 279.557 42.752ZM279.557 41.744C280.165 41.744 280.703 41.6107 281.173 41.344C281.642 41.0667 282.01 40.6827 282.277 40.192C282.554 39.6907 282.693 39.1147 282.693 38.464C282.693 37.8027 282.554 37.2267 282.277 36.736C282.01 36.2453 281.642 35.8667 281.173 35.6C280.703 35.3227 280.17 35.184 279.573 35.184C278.975 35.184 278.442 35.3227 277.973 35.6C277.503 35.8667 277.13 36.2453 276.853 36.736C276.575 37.2267 276.437 37.8027 276.437 38.464C276.437 39.1147 276.575 39.6907 276.853 40.192C277.13 40.6827 277.503 41.0667 277.973 41.344C278.442 41.6107 278.97 41.744 279.557 41.744Z" fill="#A5A9AC"/>
<path d="M270.746 42.752C269.914 42.752 269.167 42.5707 268.506 42.208C267.855 41.8347 267.343 41.328 266.97 40.688C266.596 40.0373 266.41 39.296 266.41 38.464C266.41 37.6213 266.596 36.88 266.97 36.24C267.343 35.6 267.855 35.0987 268.506 34.736C269.167 34.3733 269.914 34.192 270.746 34.192C271.46 34.192 272.106 34.3307 272.682 34.608C273.258 34.8854 273.711 35.3013 274.042 35.856L273.194 36.432C272.906 36.0053 272.548 35.6907 272.122 35.488C271.695 35.2853 271.231 35.184 270.73 35.184C270.132 35.184 269.594 35.3227 269.114 35.6C268.634 35.8667 268.255 36.2453 267.978 36.736C267.7 37.2267 267.562 37.8027 267.562 38.464C267.562 39.1253 267.7 39.7013 267.978 40.192C268.255 40.6827 268.634 41.0667 269.114 41.344C269.594 41.6107 270.132 41.744 270.73 41.744C271.231 41.744 271.695 41.6427 272.122 41.44C272.548 41.2374 272.906 40.928 273.194 40.512L274.042 41.088C273.711 41.632 273.258 42.048 272.682 42.336C272.106 42.6134 271.46 42.752 270.746 42.752Z" fill="#A5A9AC"/>
<path d="M264.213 42.7519C263.979 42.7519 263.776 42.6666 263.605 42.4959C263.445 42.3253 263.365 42.1173 263.365 41.8719C263.365 41.6159 263.445 41.4079 263.605 41.2479C263.776 41.0879 263.979 41.0079 264.213 41.0079C264.448 41.0079 264.645 41.0879 264.805 41.2479C264.976 41.4079 265.061 41.6159 265.061 41.8719C265.061 42.1173 264.976 42.3253 264.805 42.4959C264.645 42.6666 264.448 42.7519 264.213 42.7519Z" fill="#A5A9AC"/>
<path d="M258.013 42.752C257.139 42.752 256.371 42.5707 255.709 42.208C255.048 41.8347 254.531 41.328 254.157 40.688C253.784 40.0373 253.597 39.296 253.597 38.464C253.597 37.632 253.773 36.896 254.125 36.256C254.488 35.616 254.979 35.1147 255.597 34.752C256.227 34.3787 256.931 34.192 257.709 34.192C258.499 34.192 259.197 34.3733 259.805 34.736C260.424 35.088 260.909 35.5894 261.261 36.24C261.613 36.88 261.789 37.6213 261.789 38.464C261.789 38.5173 261.784 38.576 261.773 38.64C261.773 38.6933 261.773 38.752 261.773 38.816H254.461V37.968H261.165L260.717 38.304C260.717 37.696 260.584 37.1573 260.317 36.688C260.061 36.208 259.709 35.8347 259.261 35.568C258.813 35.3013 258.296 35.168 257.709 35.168C257.133 35.168 256.616 35.3013 256.157 35.568C255.698 35.8347 255.341 36.208 255.085 36.688C254.829 37.168 254.701 37.7174 254.701 38.336V38.512C254.701 39.152 254.84 39.7173 255.117 40.208C255.405 40.688 255.8 41.0667 256.301 41.344C256.813 41.6107 257.394 41.744 258.045 41.744C258.557 41.744 259.032 41.6533 259.469 41.472C259.917 41.2907 260.301 41.0133 260.621 40.64L261.261 41.376C260.888 41.824 260.419 42.1654 259.853 42.4C259.299 42.6347 258.685 42.752 258.013 42.752Z" fill="#A5A9AC"/>
<path d="M250.148 42.6719V30.7999H251.284V42.6719H250.148Z" fill="#A5A9AC"/>
<path d="M243.64 42.752C242.915 42.752 242.259 42.5867 241.672 42.256C241.086 41.9147 240.616 41.4293 240.264 40.8C239.923 40.16 239.752 39.3813 239.752 38.464C239.752 37.5467 239.923 36.7733 240.264 36.144C240.606 35.504 241.07 35.0187 241.656 34.688C242.243 34.3573 242.904 34.192 243.64 34.192C244.44 34.192 245.155 34.3733 245.784 34.736C246.424 35.088 246.926 35.5894 247.288 36.24C247.651 36.88 247.832 37.6213 247.832 38.464C247.832 39.3173 247.651 40.064 247.288 40.704C246.926 41.344 246.424 41.8453 245.784 42.208C245.155 42.5707 244.44 42.752 243.64 42.752ZM239.304 45.776V34.272H240.392V36.8L240.28 38.48L240.44 40.176V45.776H239.304ZM243.56 41.744C244.158 41.744 244.691 41.6107 245.16 41.344C245.63 41.0667 246.003 40.6827 246.28 40.192C246.558 39.6907 246.696 39.1147 246.696 38.464C246.696 37.8133 246.558 37.2427 246.28 36.752C246.003 36.2614 245.63 35.8774 245.16 35.6C244.691 35.3227 244.158 35.184 243.56 35.184C242.963 35.184 242.424 35.3227 241.944 35.6C241.475 35.8774 241.102 36.2614 240.824 36.752C240.558 37.2427 240.424 37.8133 240.424 38.464C240.424 39.1147 240.558 39.6907 240.824 40.192C241.102 40.6827 241.475 41.0667 241.944 41.344C242.424 41.6107 242.963 41.744 243.56 41.744Z" fill="#A5A9AC"/>
<path d="M232.832 34.192C233.514 34.192 234.106 34.3253 234.608 34.592C235.12 34.848 235.514 35.2427 235.792 35.776C236.08 36.3093 236.224 36.9813 236.224 37.792V42.672H235.088V37.904C235.088 37.0187 234.874 36.352 234.448 35.904C234.032 35.4453 233.44 35.216 232.672 35.216C232.096 35.216 231.594 35.3387 231.168 35.584C230.752 35.8187 230.426 36.1653 230.192 36.624C229.968 37.072 229.856 37.616 229.856 38.256V42.672H228.72V37.904C228.72 37.0187 228.506 36.352 228.08 35.904C227.653 35.4453 227.056 35.216 226.288 35.216C225.722 35.216 225.226 35.3387 224.8 35.584C224.373 35.8187 224.042 36.1653 223.808 36.624C223.584 37.072 223.472 37.616 223.472 38.256V42.672H222.336V34.272H223.424V36.544L223.248 36.144C223.504 35.536 223.914 35.0613 224.48 34.72C225.056 34.368 225.733 34.192 226.512 34.192C227.333 34.192 228.032 34.4 228.608 34.816C229.184 35.2214 229.557 35.8347 229.728 36.656L229.28 36.48C229.525 35.7973 229.957 35.248 230.576 34.832C231.205 34.4053 231.957 34.192 232.832 34.192Z" fill="#A5A9AC"/>
<path d="M218.162 42.672V40.816L218.114 40.512V37.408C218.114 36.6933 217.912 36.144 217.506 35.76C217.112 35.376 216.52 35.184 215.73 35.184C215.186 35.184 214.669 35.2747 214.178 35.456C213.688 35.6374 213.272 35.8773 212.93 36.176L212.418 35.328C212.845 34.9653 213.357 34.688 213.954 34.496C214.552 34.2933 215.181 34.192 215.842 34.192C216.93 34.192 217.768 34.464 218.354 35.008C218.952 35.5413 219.25 36.3573 219.25 37.456V42.672H218.162ZM215.266 42.752C214.637 42.752 214.088 42.6507 213.618 42.448C213.16 42.2347 212.808 41.9467 212.562 41.584C212.317 41.2107 212.194 40.784 212.194 40.304C212.194 39.8667 212.296 39.472 212.498 39.12C212.712 38.7573 213.053 38.4693 213.522 38.256C214.002 38.032 214.642 37.92 215.442 37.92H218.338V38.768H215.474C214.664 38.768 214.098 38.912 213.778 39.2C213.469 39.488 213.314 39.8453 213.314 40.272C213.314 40.752 213.501 41.136 213.874 41.424C214.248 41.712 214.77 41.856 215.442 41.856C216.082 41.856 216.632 41.712 217.09 41.424C217.56 41.1253 217.901 40.6987 218.114 40.144L218.37 40.928C218.157 41.4827 217.784 41.9253 217.25 42.256C216.728 42.5867 216.066 42.752 215.266 42.752Z" fill="#A5A9AC"/>
<path d="M203.228 42.672L206.78 38.064L206.764 38.624L203.388 34.272H204.668L207.436 37.872L206.956 37.856L209.724 34.272H210.972L207.564 38.672L207.58 38.064L211.164 42.672H209.868L206.94 38.832L207.388 38.896L204.508 42.672H203.228Z" fill="#A5A9AC"/>
<path d="M198.654 42.752C197.779 42.752 197.011 42.5707 196.35 42.208C195.688 41.8347 195.171 41.328 194.798 40.688C194.424 40.0373 194.238 39.296 194.238 38.464C194.238 37.632 194.414 36.896 194.766 36.256C195.128 35.616 195.619 35.1147 196.238 34.752C196.867 34.3787 197.571 34.192 198.35 34.192C199.139 34.192 199.838 34.3733 200.446 34.736C201.064 35.088 201.55 35.5894 201.902 36.24C202.254 36.88 202.43 37.6213 202.43 38.464C202.43 38.5173 202.424 38.576 202.414 38.64C202.414 38.6933 202.414 38.752 202.414 38.816H195.102V37.968H201.806L201.358 38.304C201.358 37.696 201.224 37.1573 200.958 36.688C200.702 36.208 200.35 35.8347 199.902 35.568C199.454 35.3013 198.936 35.168 198.35 35.168C197.774 35.168 197.256 35.3013 196.798 35.568C196.339 35.8347 195.982 36.208 195.726 36.688C195.47 37.168 195.342 37.7174 195.342 38.336V38.512C195.342 39.152 195.48 39.7173 195.758 40.208C196.046 40.688 196.44 41.0667 196.942 41.344C197.454 41.6107 198.035 41.744 198.686 41.744C199.198 41.744 199.672 41.6533 200.11 41.472C200.558 41.2907 200.942 41.0133 201.262 40.64L201.902 41.376C201.528 41.824 201.059 42.1654 200.494 42.4C199.939 42.6347 199.326 42.752 198.654 42.752Z" fill="#A5A9AC"/>
<path d="M185.21 45.872C184.112 45.872 183.109 45.6906 182.202 45.328C181.296 44.976 180.512 44.4746 179.85 43.824C179.2 43.184 178.693 42.4213 178.33 41.536C177.978 40.64 177.802 39.664 177.802 38.608C177.802 37.5413 177.978 36.5706 178.33 35.696C178.693 34.8106 179.205 34.048 179.866 33.408C180.538 32.7573 181.333 32.256 182.25 31.904C183.168 31.552 184.176 31.376 185.274 31.376C186.362 31.376 187.354 31.5466 188.25 31.888C189.157 32.2293 189.941 32.7146 190.602 33.344C191.264 33.9626 191.77 34.704 192.122 35.568C192.485 36.432 192.666 37.3866 192.666 38.432C192.666 39.328 192.56 40.1013 192.346 40.752C192.144 41.392 191.845 41.888 191.45 42.24C191.056 42.5813 190.581 42.752 190.026 42.752C189.482 42.752 189.045 42.5866 188.714 42.256C188.384 41.9253 188.218 41.4613 188.218 40.864V39.6L188.346 38.576L188.186 36.976V34.56H189.226V40.624C189.226 41.072 189.322 41.3866 189.514 41.568C189.706 41.7493 189.941 41.84 190.218 41.84C190.549 41.84 190.837 41.7066 191.082 41.44C191.328 41.1733 191.514 40.7893 191.642 40.288C191.781 39.776 191.85 39.1626 191.85 38.448C191.85 37.5093 191.69 36.656 191.37 35.888C191.05 35.12 190.597 34.4586 190.01 33.904C189.424 33.3493 188.73 32.928 187.93 32.64C187.13 32.3413 186.245 32.192 185.274 32.192C184.304 32.192 183.413 32.3466 182.602 32.656C181.792 32.9653 181.093 33.408 180.506 33.984C179.93 34.5493 179.482 35.2266 179.162 36.016C178.842 36.7946 178.682 37.6586 178.682 38.608C178.682 39.5573 178.837 40.4266 179.146 41.216C179.466 42.0053 179.914 42.6826 180.49 43.248C181.066 43.824 181.754 44.2666 182.554 44.576C183.354 44.896 184.24 45.056 185.21 45.056C185.69 45.056 186.202 44.9973 186.746 44.88C187.301 44.7626 187.813 44.5866 188.282 44.352L188.554 45.136C188.074 45.3813 187.53 45.5626 186.922 45.68C186.314 45.808 185.744 45.872 185.21 45.872ZM185.018 42.752C184.261 42.752 183.584 42.576 182.986 42.224C182.389 41.8613 181.914 41.3706 181.562 40.752C181.221 40.1226 181.05 39.408 181.05 38.608C181.05 37.808 181.221 37.0986 181.562 36.48C181.914 35.8613 182.389 35.376 182.986 35.024C183.584 34.672 184.261 34.496 185.018 34.496C185.754 34.496 186.405 34.6613 186.97 34.992C187.546 35.3226 187.994 35.7973 188.314 36.416C188.645 37.024 188.81 37.7546 188.81 38.608C188.81 39.4613 188.645 40.1973 188.314 40.816C187.994 41.4346 187.552 41.9146 186.986 42.256C186.421 42.5866 185.765 42.752 185.018 42.752ZM185.162 41.824C185.738 41.824 186.256 41.6906 186.714 41.424C187.184 41.1573 187.546 40.784 187.802 40.304C188.069 39.8133 188.202 39.248 188.202 38.608C188.202 37.9573 188.069 37.3973 187.802 36.928C187.546 36.448 187.184 36.08 186.714 35.824C186.256 35.5573 185.738 35.424 185.162 35.424C184.565 35.424 184.037 35.5573 183.578 35.824C183.12 36.08 182.757 36.448 182.49 36.928C182.234 37.408 182.106 37.968 182.106 38.608C182.106 39.248 182.234 39.808 182.49 40.288C182.757 40.768 183.12 41.1466 183.578 41.424C184.037 41.6906 184.565 41.824 185.162 41.824Z" fill="#A5A9AC"/>
<path d="M172.03 34.192C172.713 34.192 173.31 34.3253 173.822 34.592C174.345 34.848 174.75 35.2427 175.038 35.776C175.337 36.3093 175.486 36.9813 175.486 37.792V42.672H174.35V37.904C174.35 37.0187 174.126 36.352 173.678 35.904C173.241 35.4453 172.622 35.216 171.822 35.216C171.225 35.216 170.702 35.3387 170.254 35.584C169.817 35.8187 169.475 36.1653 169.23 36.624C168.995 37.072 168.878 37.616 168.878 38.256V42.672H167.742V34.272H168.83V36.576L168.654 36.144C168.921 35.536 169.347 35.0613 169.934 34.72C170.521 34.368 171.219 34.192 172.03 34.192Z" fill="#A5A9AC"/>
<path d="M161.135 42.752C160.324 42.752 159.593 42.5707 158.943 42.208C158.303 41.8347 157.796 41.328 157.423 40.688C157.049 40.0373 156.863 39.296 156.863 38.464C156.863 37.6213 157.049 36.88 157.423 36.24C157.796 35.6 158.303 35.0987 158.943 34.736C159.583 34.3733 160.313 34.192 161.135 34.192C161.967 34.192 162.703 34.3733 163.343 34.736C163.993 35.0987 164.5 35.6 164.863 36.24C165.236 36.88 165.423 37.6213 165.423 38.464C165.423 39.296 165.236 40.0373 164.863 40.688C164.5 41.328 163.993 41.8347 163.343 42.208C162.692 42.5707 161.956 42.752 161.135 42.752ZM161.135 41.744C161.743 41.744 162.281 41.6107 162.751 41.344C163.22 41.0667 163.588 40.6827 163.855 40.192C164.132 39.6907 164.271 39.1147 164.271 38.464C164.271 37.8027 164.132 37.2267 163.855 36.736C163.588 36.2453 163.22 35.8667 162.751 35.6C162.281 35.3227 161.748 35.184 161.151 35.184C160.553 35.184 160.02 35.3227 159.551 35.6C159.081 35.8667 158.708 36.2453 158.431 36.736C158.153 37.2267 158.015 37.8027 158.015 38.464C158.015 39.1147 158.153 39.6907 158.431 40.192C158.708 40.6827 159.081 41.0667 159.551 41.344C160.02 41.6107 160.548 41.744 161.135 41.744Z" fill="#A5A9AC"/>
<path d="M152.154 42.752C151.461 42.752 150.805 42.656 150.186 42.464C149.568 42.2613 149.082 42.0107 148.73 41.712L149.242 40.816C149.584 41.072 150.021 41.296 150.554 41.488C151.088 41.6694 151.648 41.76 152.234 41.76C153.034 41.76 153.61 41.6374 153.962 41.392C154.314 41.136 154.49 40.8 154.49 40.384C154.49 40.0747 154.389 39.8347 154.186 39.664C153.994 39.4827 153.738 39.3493 153.418 39.264C153.098 39.168 152.741 39.088 152.346 39.024C151.952 38.96 151.557 38.8853 151.162 38.8C150.778 38.7147 150.426 38.592 150.106 38.432C149.786 38.2613 149.525 38.032 149.322 37.744C149.13 37.456 149.034 37.072 149.034 36.592C149.034 36.1333 149.162 35.7227 149.418 35.36C149.674 34.9973 150.048 34.7147 150.538 34.512C151.04 34.2987 151.648 34.192 152.362 34.192C152.906 34.192 153.45 34.2667 153.994 34.416C154.538 34.5547 154.986 34.7414 155.338 34.976L154.842 35.888C154.469 35.632 154.069 35.4507 153.642 35.344C153.216 35.2267 152.789 35.168 152.362 35.168C151.605 35.168 151.045 35.3013 150.682 35.568C150.33 35.824 150.154 36.1547 150.154 36.56C150.154 36.88 150.25 37.1307 150.442 37.312C150.645 37.4933 150.906 37.6373 151.226 37.744C151.557 37.84 151.914 37.92 152.298 37.984C152.693 38.048 153.082 38.128 153.466 38.224C153.861 38.3093 154.218 38.432 154.538 38.592C154.869 38.7413 155.13 38.96 155.322 39.248C155.525 39.5253 155.626 39.8933 155.626 40.352C155.626 40.8427 155.488 41.2693 155.21 41.632C154.944 41.984 154.549 42.2613 154.026 42.464C153.514 42.656 152.89 42.752 152.154 42.752Z" fill="#A5A9AC"/>
<path d="M146.054 42.752C145.265 42.752 144.657 42.5387 144.23 42.112C143.804 41.6853 143.59 41.0827 143.59 40.304V32.416H144.726V40.24C144.726 40.7307 144.849 41.1093 145.094 41.376C145.35 41.6427 145.713 41.776 146.182 41.776C146.684 41.776 147.1 41.632 147.43 41.344L147.83 42.16C147.606 42.3627 147.334 42.512 147.014 42.608C146.705 42.704 146.385 42.752 146.054 42.752ZM142.086 35.216V34.272H147.286V35.216H142.086Z" fill="#A5A9AC"/>
<path d="M139.225 42.672V40.816L139.177 40.512V37.408C139.177 36.6933 138.974 36.144 138.569 35.76C138.174 35.376 137.582 35.184 136.793 35.184C136.249 35.184 135.731 35.2747 135.241 35.456C134.75 35.6374 134.334 35.8773 133.993 36.176L133.481 35.328C133.908 34.9653 134.419 34.688 135.017 34.496C135.614 34.2933 136.243 34.192 136.905 34.192C137.993 34.192 138.83 34.464 139.417 35.008C140.014 35.5413 140.313 36.3573 140.313 37.456V42.672H139.225ZM136.329 42.752C135.699 42.752 135.15 42.6507 134.681 42.448C134.222 42.2347 133.87 41.9467 133.625 41.584C133.379 41.2107 133.257 40.784 133.257 40.304C133.257 39.8667 133.358 39.472 133.561 39.12C133.774 38.7573 134.116 38.4693 134.585 38.256C135.065 38.032 135.705 37.92 136.505 37.92H139.401V38.768H136.537C135.726 38.768 135.161 38.912 134.841 39.2C134.532 39.488 134.377 39.8453 134.377 40.272C134.377 40.752 134.563 41.136 134.937 41.424C135.31 41.712 135.833 41.856 136.505 41.856C137.145 41.856 137.694 41.712 138.153 41.424C138.622 41.1253 138.964 40.6987 139.177 40.144L139.433 40.928C139.219 41.4827 138.846 41.9253 138.313 42.256C137.79 42.5867 137.129 42.752 136.329 42.752Z" fill="#A5A9AC"/>
<path d="M121.86 42.672L118.692 34.272H119.78L122.66 42.064H122.164L125.124 34.272H126.1L129.028 42.064H128.532L131.46 34.272H132.5L129.316 42.672H128.244L125.428 35.344H125.764L122.932 42.672H121.86Z" fill="#A5A9AC"/>
<path d="M117.417 42.7519C117.182 42.7519 116.979 42.6666 116.809 42.4959C116.649 42.3253 116.569 42.1173 116.569 41.8719C116.569 41.6159 116.649 41.4079 116.809 41.2479C116.979 41.0879 117.182 41.0079 117.417 41.0079C117.651 41.0079 117.849 41.0879 118.009 41.2479C118.179 41.4079 118.265 41.6159 118.265 41.8719C118.265 42.1173 118.179 42.3253 118.009 42.4959C117.849 42.6666 117.651 42.7519 117.417 42.7519Z" fill="#A5A9AC"/>
<path d="M110.78 34.192C111.463 34.192 112.06 34.3253 112.572 34.592C113.095 34.848 113.5 35.2427 113.788 35.776C114.087 36.3093 114.236 36.9813 114.236 37.792V42.672H113.1V37.904C113.1 37.0187 112.876 36.352 112.428 35.904C111.991 35.4453 111.372 35.216 110.572 35.216C109.975 35.216 109.452 35.3387 109.004 35.584C108.567 35.8187 108.225 36.1653 107.98 36.624C107.745 37.072 107.628 37.616 107.628 38.256V42.672H106.492V34.272H107.58V36.576L107.404 36.144C107.671 35.536 108.097 35.0613 108.684 34.72C109.271 34.368 109.969 34.192 110.78 34.192Z" fill="#A5A9AC"/>
<path d="M102.195 42.6719V34.2719H103.331V42.6719H102.195ZM102.771 32.4159C102.537 32.4159 102.339 32.3359 102.179 32.1759C102.019 32.0159 101.939 31.8239 101.939 31.5999C101.939 31.3759 102.019 31.1893 102.179 31.0399C102.339 30.8799 102.537 30.7999 102.771 30.7999C103.006 30.7999 103.203 30.8746 103.363 31.0239C103.523 31.1733 103.603 31.3599 103.603 31.5839C103.603 31.8186 103.523 32.0159 103.363 32.1759C103.214 32.3359 103.017 32.4159 102.771 32.4159Z" fill="#A5A9AC"/>
<path d="M98.3511 42.752C97.5617 42.752 96.9537 42.5387 96.5271 42.112C96.1004 41.6853 95.8871 41.0827 95.8871 40.304V32.416H97.0231V40.24C97.0231 40.7307 97.1457 41.1093 97.3911 41.376C97.6471 41.6427 98.0097 41.776 98.479 41.776C98.9804 41.776 99.3964 41.632 99.7271 41.344L100.127 42.16C99.9031 42.3627 99.6311 42.512 99.3111 42.608C99.0017 42.704 98.6817 42.752 98.3511 42.752ZM94.3831 35.216V34.272H99.5831V35.216H94.3831Z" fill="#A5A9AC"/>
<path d="M90.1386 42.752C89.4453 42.752 88.7893 42.656 88.1706 42.464C87.5519 42.2613 87.0666 42.0107 86.7146 41.712L87.2266 40.816C87.5679 41.072 88.0053 41.296 88.5386 41.488C89.0719 41.6694 89.6319 41.76 90.2186 41.76C91.0186 41.76 91.5946 41.6374 91.9466 41.392C92.2986 41.136 92.4746 40.8 92.4746 40.384C92.4746 40.0747 92.3733 39.8347 92.1706 39.664C91.9786 39.4827 91.7226 39.3493 91.4026 39.264C91.0826 39.168 90.7253 39.088 90.3306 39.024C89.9359 38.96 89.5413 38.8853 89.1466 38.8C88.7626 38.7147 88.4106 38.592 88.0906 38.432C87.7706 38.2613 87.5093 38.032 87.3066 37.744C87.1146 37.456 87.0186 37.072 87.0186 36.592C87.0186 36.1333 87.1466 35.7227 87.4026 35.36C87.6586 34.9973 88.0319 34.7147 88.5226 34.512C89.0239 34.2987 89.6319 34.192 90.3466 34.192C90.8906 34.192 91.4346 34.2667 91.9786 34.416C92.5226 34.5547 92.9706 34.7414 93.3226 34.976L92.8266 35.888C92.4533 35.632 92.0533 35.4507 91.6266 35.344C91.1999 35.2267 90.7733 35.168 90.3466 35.168C89.5893 35.168 89.0293 35.3013 88.6666 35.568C88.3146 35.824 88.1386 36.1547 88.1386 36.56C88.1386 36.88 88.2346 37.1307 88.4266 37.312C88.6293 37.4933 88.8906 37.6373 89.2106 37.744C89.5413 37.84 89.8986 37.92 90.2826 37.984C90.6773 38.048 91.0666 38.128 91.4506 38.224C91.8453 38.3093 92.2026 38.432 92.5226 38.592C92.8533 38.7413 93.1146 38.96 93.3066 39.248C93.5093 39.5253 93.6106 39.8933 93.6106 40.352C93.6106 40.8427 93.4719 41.2693 93.1946 41.632C92.9279 41.984 92.5333 42.2613 92.0106 42.464C91.4986 42.656 90.8746 42.752 90.1386 42.752Z" fill="#A5A9AC"/>
<path d="M83.5858 42.6719V34.2719H84.7218V42.6719H83.5858ZM84.1618 32.4159C83.9272 32.4159 83.7298 32.3359 83.5698 32.1759C83.4098 32.0159 83.3298 31.8239 83.3298 31.5999C83.3298 31.3759 83.4098 31.1893 83.5698 31.0399C83.7298 30.8799 83.9272 30.7999 84.1618 30.7999C84.3965 30.7999 84.5938 30.8746 84.7538 31.0239C84.9138 31.1733 84.9938 31.3599 84.9938 31.5839C84.9938 31.8186 84.9138 32.0159 84.7538 32.1759C84.6045 32.3359 84.4072 32.4159 84.1618 32.4159Z" fill="#A5A9AC"/>
<path d="M77.2888 42.672V34.272H78.3768V36.56L78.2648 36.16C78.4995 35.52 78.8942 35.0347 79.4488 34.704C80.0035 34.3627 80.6915 34.192 81.5128 34.192V35.296C81.4702 35.296 81.4275 35.296 81.3848 35.296C81.3422 35.2854 81.2995 35.28 81.2568 35.28C80.3715 35.28 79.6782 35.552 79.1768 36.096C78.6755 36.6293 78.4248 37.392 78.4248 38.384V42.672H77.2888Z" fill="#A5A9AC"/>
<path d="M68.7004 40.4959L68.7324 39.0399L73.9644 34.2719H75.3564L71.6604 37.8079L71.0204 38.3519L68.7004 40.4959ZM67.8044 42.6719V30.7999H68.9404V42.6719H67.8044ZM74.3164 42.6719L70.8124 38.3039L71.5484 37.4239L75.7084 42.6719H74.3164Z" fill="#A5A9AC"/>
<path d="M58.0605 42.752C57.3671 42.752 56.7111 42.656 56.0925 42.464C55.4738 42.2613 54.9885 42.0107 54.6365 41.712L55.1485 40.816C55.4898 41.072 55.9271 41.296 56.4605 41.488C56.9938 41.6694 57.5538 41.76 58.1405 41.76C58.9405 41.76 59.5165 41.6374 59.8685 41.392C60.2205 41.136 60.3965 40.8 60.3965 40.384C60.3965 40.0747 60.2951 39.8347 60.0925 39.664C59.9005 39.4827 59.6445 39.3493 59.3245 39.264C59.0045 39.168 58.6471 39.088 58.2525 39.024C57.8578 38.96 57.4631 38.8853 57.0685 38.8C56.6845 38.7147 56.3325 38.592 56.0125 38.432C55.6925 38.2613 55.4311 38.032 55.2285 37.744C55.0365 37.456 54.9405 37.072 54.9405 36.592C54.9405 36.1333 55.0685 35.7227 55.3245 35.36C55.5805 34.9973 55.9538 34.7147 56.4445 34.512C56.9458 34.2987 57.5538 34.192 58.2685 34.192C58.8125 34.192 59.3565 34.2667 59.9005 34.416C60.4445 34.5547 60.8925 34.7414 61.2445 34.976L60.7485 35.888C60.3751 35.632 59.9751 35.4507 59.5485 35.344C59.1218 35.2267 58.6951 35.168 58.2685 35.168C57.5111 35.168 56.9511 35.3013 56.5885 35.568C56.2365 35.824 56.0605 36.1547 56.0605 36.56C56.0605 36.88 56.1565 37.1307 56.3485 37.312C56.5511 37.4933 56.8125 37.6373 57.1325 37.744C57.4631 37.84 57.8205 37.92 58.2045 37.984C58.5991 38.048 58.9885 38.128 59.3725 38.224C59.7671 38.3093 60.1245 38.432 60.4445 38.592C60.7751 38.7413 61.0365 38.96 61.2285 39.248C61.4311 39.5253 61.5325 39.8933 61.5325 40.352C61.5325 40.8427 61.3938 41.2693 61.1165 41.632C60.8498 41.984 60.4551 42.2613 59.9325 42.464C59.4205 42.656 58.7965 42.752 58.0605 42.752Z" fill="#A5A9AC"/>
<path d="M50.248 42.752C49.5546 42.752 48.8986 42.656 48.28 42.464C47.6613 42.2613 47.176 42.0107 46.824 41.712L47.336 40.816C47.6773 41.072 48.1146 41.296 48.648 41.488C49.1813 41.6694 49.7413 41.76 50.328 41.76C51.128 41.76 51.704 41.6374 52.056 41.392C52.408 41.136 52.584 40.8 52.584 40.384C52.584 40.0747 52.4826 39.8347 52.28 39.664C52.088 39.4827 51.832 39.3493 51.512 39.264C51.192 39.168 50.8346 39.088 50.44 39.024C50.0453 38.96 49.6506 38.8853 49.256 38.8C48.872 38.7147 48.52 38.592 48.2 38.432C47.88 38.2613 47.6186 38.032 47.416 37.744C47.224 37.456 47.128 37.072 47.128 36.592C47.128 36.1333 47.256 35.7227 47.512 35.36C47.768 34.9973 48.1413 34.7147 48.632 34.512C49.1333 34.2987 49.7413 34.192 50.456 34.192C51 34.192 51.544 34.2667 52.088 34.416C52.632 34.5547 53.08 34.7414 53.432 34.976L52.936 35.888C52.5626 35.632 52.1626 35.4507 51.736 35.344C51.3093 35.2267 50.8826 35.168 50.456 35.168C49.6986 35.168 49.1386 35.3013 48.776 35.568C48.424 35.824 48.248 36.1547 48.248 36.56C48.248 36.88 48.344 37.1307 48.536 37.312C48.7386 37.4933 49 37.6373 49.32 37.744C49.6506 37.84 50.008 37.92 50.392 37.984C50.7866 38.048 51.176 38.128 51.56 38.224C51.9546 38.3093 52.312 38.432 52.632 38.592C52.9626 38.7413 53.224 38.96 53.416 39.248C53.6186 39.5253 53.72 39.8933 53.72 40.352C53.72 40.8427 53.5813 41.2693 53.304 41.632C53.0373 41.984 52.6426 42.2613 52.12 42.464C51.608 42.656 50.984 42.752 50.248 42.752Z" fill="#A5A9AC"/>
<path d="M41.9038 42.752C41.0291 42.752 40.2611 42.5707 39.5998 42.208C38.9385 41.8347 38.4211 41.328 38.0478 40.688C37.6745 40.0373 37.4878 39.296 37.4878 38.464C37.4878 37.632 37.6638 36.896 38.0158 36.256C38.3785 35.616 38.8691 35.1147 39.4878 34.752C40.1171 34.3787 40.8211 34.192 41.5998 34.192C42.3891 34.192 43.0878 34.3733 43.6958 34.736C44.3145 35.088 44.7998 35.5894 45.1518 36.24C45.5038 36.88 45.6798 37.6213 45.6798 38.464C45.6798 38.5173 45.6745 38.576 45.6638 38.64C45.6638 38.6933 45.6638 38.752 45.6638 38.816H38.3518V37.968H45.0558L44.6078 38.304C44.6078 37.696 44.4745 37.1573 44.2078 36.688C43.9518 36.208 43.5998 35.8347 43.1518 35.568C42.7038 35.3013 42.1865 35.168 41.5998 35.168C41.0238 35.168 40.5065 35.3013 40.0478 35.568C39.5891 35.8347 39.2318 36.208 38.9758 36.688C38.7198 37.168 38.5918 37.7174 38.5918 38.336V38.512C38.5918 39.152 38.7305 39.7173 39.0078 40.208C39.2958 40.688 39.6905 41.0667 40.1918 41.344C40.7038 41.6107 41.2851 41.744 41.9358 41.744C42.4478 41.744 42.9225 41.6533 43.3598 41.472C43.8078 41.2907 44.1918 41.0133 44.5118 40.64L45.1518 41.376C44.7785 41.824 44.3091 42.1654 43.7438 42.4C43.1891 42.6347 42.5758 42.752 41.9038 42.752Z" fill="#A5A9AC"/>
<path d="M32.1169 42.672V34.272H33.2049V36.56L33.0929 36.16C33.3276 35.52 33.7223 35.0347 34.2769 34.704C34.8316 34.3627 35.5196 34.192 36.3409 34.192V35.296C36.2983 35.296 36.2556 35.296 36.2129 35.296C36.1703 35.2854 36.1276 35.28 36.0849 35.28C35.1996 35.28 34.5063 35.552 34.0049 36.096C33.5036 36.6293 33.2529 37.392 33.2529 38.384V42.672H32.1169Z" fill="#A5A9AC"/>
<path d="M24.6173 42.7519C23.8173 42.7519 23.0973 42.5706 22.4573 42.2079C21.828 41.8453 21.332 41.3439 20.9693 40.7039C20.6066 40.0533 20.4253 39.3066 20.4253 38.4639C20.4253 37.6106 20.6066 36.8639 20.9693 36.2239C21.332 35.5839 21.828 35.0879 22.4573 34.7359C23.0973 34.3733 23.8173 34.1919 24.6173 34.1919C25.3533 34.1919 26.0093 34.3573 26.5853 34.6879C27.172 35.0186 27.636 35.5039 27.9773 36.1439C28.3293 36.7733 28.5053 37.5466 28.5053 38.4639C28.5053 39.3706 28.3346 40.1439 27.9933 40.7839C27.652 41.4239 27.188 41.9146 26.6013 42.2559C26.0253 42.5866 25.364 42.7519 24.6173 42.7519ZM24.6973 41.7439C25.2946 41.7439 25.828 41.6106 26.2973 41.3439C26.7773 41.0666 27.1506 40.6826 27.4173 40.1919C27.6946 39.6906 27.8333 39.1146 27.8333 38.4639C27.8333 37.8026 27.6946 37.2266 27.4173 36.7359C27.1506 36.2453 26.7773 35.8666 26.2973 35.5999C25.828 35.3226 25.2946 35.1839 24.6973 35.1839C24.1106 35.1839 23.5826 35.3226 23.1133 35.5999C22.644 35.8666 22.2706 36.2453 21.9933 36.7359C21.716 37.2266 21.5773 37.8026 21.5773 38.4639C21.5773 39.1146 21.716 39.6906 21.9933 40.1919C22.2706 40.6826 22.644 41.0666 23.1133 41.3439C23.5826 41.6106 24.1106 41.7439 24.6973 41.7439ZM27.8653 42.6719V40.1439L27.9773 38.4479L27.8173 36.7519V30.7999H28.9533V42.6719H27.8653Z" fill="#A5A9AC"/>
<path d="M13.7735 42.7519C12.9735 42.7519 12.2535 42.5706 11.6135 42.2079C10.9842 41.8453 10.4882 41.3439 10.1255 40.7039C9.76288 40.0533 9.58154 39.3066 9.58154 38.4639C9.58154 37.6106 9.76288 36.8639 10.1255 36.2239C10.4882 35.5839 10.9842 35.0879 11.6135 34.7359C12.2535 34.3733 12.9735 34.1919 13.7735 34.1919C14.5095 34.1919 15.1655 34.3573 15.7415 34.6879C16.3282 35.0186 16.7922 35.5039 17.1335 36.1439C17.4855 36.7733 17.6615 37.5466 17.6615 38.4639C17.6615 39.3706 17.4909 40.1439 17.1495 40.7839C16.8082 41.4239 16.3442 41.9146 15.7575 42.2559C15.1815 42.5866 14.5202 42.7519 13.7735 42.7519ZM13.8535 41.7439C14.4509 41.7439 14.9842 41.6106 15.4535 41.3439C15.9335 41.0666 16.3069 40.6826 16.5735 40.1919C16.8509 39.6906 16.9895 39.1146 16.9895 38.4639C16.9895 37.8026 16.8509 37.2266 16.5735 36.7359C16.3069 36.2453 15.9335 35.8666 15.4535 35.5999C14.9842 35.3226 14.4509 35.1839 13.8535 35.1839C13.2669 35.1839 12.7389 35.3226 12.2695 35.5999C11.8002 35.8666 11.4269 36.2453 11.1495 36.7359C10.8722 37.2266 10.7335 37.8026 10.7335 38.4639C10.7335 39.1146 10.8722 39.6906 11.1495 40.1919C11.4269 40.6826 11.8002 41.0666 12.2695 41.3439C12.7389 41.6106 13.2669 41.7439 13.8535 41.7439ZM17.0215 42.6719V40.1439L17.1335 38.4479L16.9735 36.7519V30.7999H18.1095V42.6719H17.0215Z" fill="#A5A9AC"/>
<path d="M6.25609 42.672V40.816L6.20809 40.512V37.408C6.20809 36.6933 6.00542 36.144 5.60009 35.76C5.20542 35.376 4.61342 35.184 3.82409 35.184C3.28009 35.184 2.76275 35.2747 2.27209 35.456C1.78142 35.6374 1.36542 35.8773 1.02409 36.176L0.512086 35.328C0.938753 34.9653 1.45075 34.688 2.04809 34.496C2.64542 34.2933 3.27475 34.192 3.93609 34.192C5.02409 34.192 5.86142 34.464 6.44809 35.008C7.04542 35.5413 7.34409 36.3573 7.34409 37.456V42.672H6.25609ZM3.36009 42.752C2.73075 42.752 2.18142 42.6507 1.71209 42.448C1.25342 42.2347 0.901419 41.9467 0.656086 41.584C0.410753 41.2107 0.288086 40.784 0.288086 40.304C0.288086 39.8667 0.389419 39.472 0.592086 39.12C0.805419 38.7573 1.14675 38.4693 1.61609 38.256C2.09609 38.032 2.73609 37.92 3.53609 37.92H6.43209V38.768H3.56809C2.75742 38.768 2.19209 38.912 1.87209 39.2C1.56275 39.488 1.40809 39.8453 1.40809 40.272C1.40809 40.752 1.59475 41.136 1.96809 41.424C2.34142 41.712 2.86409 41.856 3.53609 41.856C4.17609 41.856 4.72542 41.712 5.18409 41.424C5.65342 41.1253 5.99475 40.6987 6.20809 40.144L6.46409 40.928C6.25075 41.4827 5.87742 41.9253 5.34409 42.256C4.82142 42.5867 4.16009 42.752 3.36009 42.752Z" fill="#A5A9AC"/>
<path d="M364.992 12.6719V0.799927H366.128V12.6719H364.992Z" fill="#A5A9AC"/>
<path d="M360.695 12.6719V4.27193H361.831V12.6719H360.695ZM361.271 2.41593C361.037 2.41593 360.839 2.33593 360.679 2.17593C360.519 2.01593 360.439 1.82393 360.439 1.59993C360.439 1.37593 360.519 1.18926 360.679 1.03993C360.839 0.879927 361.037 0.799927 361.271 0.799927C361.506 0.799927 361.703 0.874593 361.863 1.02393C362.023 1.17326 362.103 1.35993 362.103 1.58393C362.103 1.81859 362.023 2.01593 361.863 2.17593C361.714 2.33593 361.517 2.41593 361.271 2.41593Z" fill="#A5A9AC"/>
<path d="M356.522 12.672V10.816L356.474 10.512V7.40802C356.474 6.69335 356.271 6.14402 355.866 5.76002C355.471 5.37602 354.879 5.18402 354.09 5.18402C353.546 5.18402 353.028 5.27468 352.538 5.45602C352.047 5.63735 351.631 5.87735 351.29 6.17602L350.778 5.32802C351.204 4.96535 351.716 4.68802 352.314 4.49602C352.911 4.29335 353.54 4.19202 354.202 4.19202C355.29 4.19202 356.127 4.46402 356.714 5.00802C357.311 5.54135 357.61 6.35735 357.61 7.45602V12.672H356.522ZM353.626 12.752C352.996 12.752 352.447 12.6507 351.978 12.448C351.519 12.2347 351.167 11.9467 350.922 11.584C350.676 11.2107 350.554 10.784 350.554 10.304C350.554 9.86668 350.655 9.47202 350.858 9.12002C351.071 8.75735 351.412 8.46935 351.882 8.25602C352.362 8.03202 353.002 7.92002 353.802 7.92002H356.698V8.76802H353.834C353.023 8.76802 352.458 8.91202 352.138 9.20002C351.828 9.48802 351.674 9.84535 351.674 10.272C351.674 10.752 351.86 11.136 352.234 11.424C352.607 11.712 353.13 11.856 353.802 11.856C354.442 11.856 354.991 11.712 355.45 11.424C355.919 11.1254 356.26 10.6987 356.474 10.144L356.73 10.928C356.516 11.4827 356.143 11.9254 355.61 12.256C355.087 12.5867 354.426 12.752 353.626 12.752Z" fill="#A5A9AC"/>
<path d="M344.785 4.19202C345.467 4.19202 346.059 4.32535 346.561 4.59202C347.073 4.84802 347.467 5.24268 347.745 5.77602C348.033 6.30935 348.177 6.98135 348.177 7.79202V12.672H347.041V7.90402C347.041 7.01868 346.827 6.35202 346.401 5.90402C345.985 5.44535 345.393 5.21602 344.625 5.21602C344.049 5.21602 343.547 5.33868 343.121 5.58402C342.705 5.81868 342.379 6.16535 342.145 6.62402C341.921 7.07202 341.809 7.61602 341.809 8.25602V12.672H340.673V7.90402C340.673 7.01868 340.459 6.35202 340.033 5.90402C339.606 5.44535 339.009 5.21602 338.241 5.21602C337.675 5.21602 337.179 5.33868 336.753 5.58402C336.326 5.81868 335.995 6.16535 335.761 6.62402C335.537 7.07202 335.425 7.61602 335.425 8.25602V12.672H334.289V4.27202H335.377V6.54402L335.201 6.14402C335.457 5.53602 335.867 5.06135 336.433 4.72002C337.009 4.36802 337.686 4.19202 338.465 4.19202C339.286 4.19202 339.985 4.40002 340.561 4.81602C341.137 5.22135 341.51 5.83468 341.681 6.65602L341.233 6.48002C341.478 5.79735 341.91 5.24802 342.529 4.83202C343.158 4.40535 343.91 4.19202 344.785 4.19202Z" fill="#A5A9AC"/>
<path d="M328.201 12.752C327.326 12.752 326.558 12.5707 325.897 12.208C325.235 11.8347 324.718 11.328 324.345 10.688C323.971 10.0374 323.785 9.29602 323.785 8.46402C323.785 7.63202 323.961 6.89602 324.313 6.25602C324.675 5.61602 325.166 5.11468 325.785 4.75202C326.414 4.37868 327.118 4.19202 327.897 4.19202C328.686 4.19202 329.385 4.37335 329.993 4.73602C330.611 5.08802 331.097 5.58935 331.449 6.24002C331.801 6.88002 331.977 7.62135 331.977 8.46402C331.977 8.51735 331.971 8.57602 331.961 8.64002C331.961 8.69335 331.961 8.75202 331.961 8.81602H324.649V7.96802H331.353L330.905 8.30402C330.905 7.69602 330.771 7.15735 330.505 6.68802C330.249 6.20802 329.897 5.83468 329.449 5.56802C329.001 5.30135 328.483 5.16802 327.897 5.16802C327.321 5.16802 326.803 5.30135 326.345 5.56802C325.886 5.83468 325.529 6.20802 325.273 6.68802C325.017 7.16802 324.889 7.71735 324.889 8.33602V8.51202C324.889 9.15202 325.027 9.71735 325.305 10.208C325.593 10.688 325.987 11.0667 326.489 11.344C327.001 11.6107 327.582 11.744 328.233 11.744C328.745 11.744 329.219 11.6533 329.657 11.472C330.105 11.2907 330.489 11.0134 330.809 10.64L331.449 11.376C331.075 11.824 330.606 12.1654 330.041 12.4C329.486 12.6347 328.873 12.752 328.201 12.752Z" fill="#A5A9AC"/>
<path d="M312.945 12.7519C312.145 12.7519 311.425 12.5706 310.785 12.2079C310.156 11.8453 309.66 11.3439 309.297 10.7039C308.935 10.0533 308.753 9.30659 308.753 8.46393C308.753 7.61059 308.935 6.86393 309.297 6.22393C309.66 5.58393 310.156 5.08793 310.785 4.73593C311.425 4.37326 312.145 4.19193 312.945 4.19193C313.681 4.19193 314.337 4.35726 314.913 4.68793C315.5 5.01859 315.964 5.50393 316.305 6.14393C316.657 6.77326 316.833 7.54659 316.833 8.46393C316.833 9.37059 316.663 10.1439 316.321 10.7839C315.98 11.4239 315.516 11.9146 314.929 12.2559C314.353 12.5866 313.692 12.7519 312.945 12.7519ZM313.025 11.7439C313.623 11.7439 314.156 11.6106 314.625 11.3439C315.105 11.0666 315.479 10.6826 315.745 10.1919C316.023 9.69059 316.161 9.11459 316.161 8.46393C316.161 7.80259 316.023 7.22659 315.745 6.73593C315.479 6.24526 315.105 5.86659 314.625 5.59993C314.156 5.32259 313.623 5.18393 313.025 5.18393C312.439 5.18393 311.911 5.32259 311.441 5.59993C310.972 5.86659 310.599 6.24526 310.321 6.73593C310.044 7.22659 309.905 7.80259 309.905 8.46393C309.905 9.11459 310.044 9.69059 310.321 10.1919C310.599 10.6826 310.972 11.0666 311.441 11.3439C311.911 11.6106 312.439 11.7439 313.025 11.7439ZM316.193 12.6719V10.1439L316.305 8.44793L316.145 6.75193V0.799927H317.281V12.6719H316.193Z" fill="#A5A9AC"/>
<path d="M303.513 12.752C302.639 12.752 301.871 12.5707 301.209 12.208C300.548 11.8347 300.03 11.328 299.657 10.688C299.284 10.0374 299.097 9.29602 299.097 8.46402C299.097 7.63202 299.273 6.89602 299.625 6.25602C299.988 5.61602 300.479 5.11468 301.097 4.75202C301.727 4.37868 302.431 4.19202 303.209 4.19202C303.999 4.19202 304.697 4.37335 305.305 4.73602C305.924 5.08802 306.409 5.58935 306.761 6.24002C307.113 6.88002 307.289 7.62135 307.289 8.46402C307.289 8.51735 307.284 8.57602 307.273 8.64002C307.273 8.69335 307.273 8.75202 307.273 8.81602H299.961V7.96802H306.665L306.217 8.30402C306.217 7.69602 306.084 7.15735 305.817 6.68802C305.561 6.20802 305.209 5.83468 304.761 5.56802C304.313 5.30135 303.796 5.16802 303.209 5.16802C302.633 5.16802 302.116 5.30135 301.657 5.56802C301.198 5.83468 300.841 6.20802 300.585 6.68802C300.329 7.16802 300.201 7.71735 300.201 8.33602V8.51202C300.201 9.15202 300.34 9.71735 300.617 10.208C300.905 10.688 301.3 11.0667 301.801 11.344C302.313 11.6107 302.894 11.744 303.545 11.744C304.057 11.744 304.532 11.6533 304.969 11.472C305.417 11.2907 305.801 11.0134 306.121 10.64L306.761 11.376C306.388 11.824 305.919 12.1654 305.353 12.4C304.799 12.6347 304.185 12.752 303.513 12.752Z" fill="#A5A9AC"/>
<path d="M293.726 12.672V4.27202H294.814V6.56002L294.702 6.16002C294.937 5.52002 295.332 5.03468 295.886 4.70402C296.441 4.36268 297.129 4.19202 297.95 4.19202V5.29602C297.908 5.29602 297.865 5.29602 297.822 5.29602C297.78 5.28535 297.737 5.28002 297.694 5.28002C296.809 5.28002 296.116 5.55202 295.614 6.09602C295.113 6.62935 294.862 7.39202 294.862 8.38402V12.672H293.726Z" fill="#A5A9AC"/>
<path d="M287.638 12.752C286.764 12.752 285.996 12.5707 285.334 12.208C284.673 11.8347 284.155 11.328 283.782 10.688C283.409 10.0374 283.222 9.29602 283.222 8.46402C283.222 7.63202 283.398 6.89602 283.75 6.25602C284.113 5.61602 284.604 5.11468 285.222 4.75202C285.852 4.37868 286.556 4.19202 287.334 4.19202C288.124 4.19202 288.822 4.37335 289.43 4.73602C290.049 5.08802 290.534 5.58935 290.886 6.24002C291.238 6.88002 291.414 7.62135 291.414 8.46402C291.414 8.51735 291.409 8.57602 291.398 8.64002C291.398 8.69335 291.398 8.75202 291.398 8.81602H284.086V7.96802H290.79L290.342 8.30402C290.342 7.69602 290.209 7.15735 289.942 6.68802C289.686 6.20802 289.334 5.83468 288.886 5.56802C288.438 5.30135 287.921 5.16802 287.334 5.16802C286.758 5.16802 286.241 5.30135 285.782 5.56802C285.323 5.83468 284.966 6.20802 284.71 6.68802C284.454 7.16802 284.326 7.71735 284.326 8.33602V8.51202C284.326 9.15202 284.465 9.71735 284.742 10.208C285.03 10.688 285.425 11.0667 285.926 11.344C286.438 11.6107 287.019 11.744 287.67 11.744C288.182 11.744 288.657 11.6533 289.094 11.472C289.542 11.2907 289.926 11.0134 290.246 10.64L290.886 11.376C290.513 11.824 290.044 12.1654 289.478 12.4C288.924 12.6347 288.31 12.752 287.638 12.752Z" fill="#A5A9AC"/>
<path d="M280.523 12.752C279.734 12.752 279.126 12.5387 278.699 12.112C278.272 11.6853 278.059 11.0827 278.059 10.304V2.41602H279.195V10.24C279.195 10.7307 279.318 11.1093 279.563 11.376C279.819 11.6427 280.182 11.776 280.651 11.776C281.152 11.776 281.568 11.632 281.899 11.344L282.299 12.16C282.075 12.3627 281.803 12.512 281.483 12.608C281.174 12.704 280.854 12.752 280.523 12.752ZM276.555 5.21602V4.27202H281.755V5.21602H276.555Z" fill="#A5A9AC"/>
<path d="M272.31 12.752C271.617 12.752 270.961 12.656 270.342 12.464C269.724 12.2614 269.238 12.0107 268.886 11.712L269.398 10.816C269.74 11.072 270.177 11.296 270.71 11.488C271.244 11.6694 271.804 11.76 272.391 11.76C273.191 11.76 273.766 11.6373 274.118 11.392C274.47 11.136 274.646 10.8 274.646 10.384C274.646 10.0747 274.545 9.83468 274.342 9.66402C274.15 9.48268 273.894 9.34935 273.574 9.26402C273.254 9.16802 272.897 9.08802 272.503 9.02402C272.108 8.96002 271.713 8.88535 271.318 8.80002C270.934 8.71468 270.582 8.59202 270.262 8.43202C269.942 8.26135 269.681 8.03202 269.478 7.74402C269.286 7.45602 269.19 7.07202 269.19 6.59202C269.19 6.13335 269.318 5.72268 269.574 5.36002C269.83 4.99735 270.204 4.71468 270.694 4.51202C271.196 4.29868 271.804 4.19202 272.518 4.19202C273.062 4.19202 273.606 4.26668 274.15 4.41602C274.694 4.55468 275.142 4.74135 275.494 4.97602L274.999 5.88802C274.625 5.63202 274.225 5.45068 273.798 5.34402C273.372 5.22668 272.945 5.16802 272.518 5.16802C271.761 5.16802 271.201 5.30135 270.839 5.56802C270.487 5.82402 270.31 6.15468 270.31 6.56002C270.31 6.88002 270.406 7.13068 270.598 7.31202C270.801 7.49335 271.062 7.63735 271.382 7.74402C271.713 7.84002 272.07 7.92002 272.454 7.98402C272.849 8.04802 273.238 8.12802 273.622 8.22402C274.017 8.30935 274.374 8.43202 274.694 8.59202C275.025 8.74135 275.286 8.96002 275.478 9.24802C275.681 9.52535 275.783 9.89335 275.783 10.352C275.783 10.8427 275.644 11.2693 275.366 11.632C275.1 11.984 274.705 12.2614 274.182 12.464C273.67 12.656 273.046 12.752 272.31 12.752Z" fill="#A5A9AC"/>
<path d="M265.758 12.6719V4.27193H266.894V12.6719H265.758ZM266.334 2.41593C266.099 2.41593 265.902 2.33593 265.742 2.17593C265.582 2.01593 265.502 1.82393 265.502 1.59993C265.502 1.37593 265.582 1.18926 265.742 1.03993C265.902 0.879927 266.099 0.799927 266.334 0.799927C266.568 0.799927 266.766 0.874593 266.926 1.02393C267.086 1.17326 267.166 1.35993 267.166 1.58393C267.166 1.81859 267.086 2.01593 266.926 2.17593C266.776 2.33593 266.579 2.41593 266.334 2.41593Z" fill="#A5A9AC"/>
<path d="M258.389 15.856C257.621 15.856 256.885 15.744 256.181 15.52C255.477 15.296 254.906 14.976 254.469 14.56L255.045 13.696C255.439 14.048 255.925 14.3254 256.501 14.528C257.087 14.7414 257.706 14.848 258.357 14.848C259.423 14.848 260.207 14.5974 260.709 14.096C261.21 13.6054 261.461 12.8374 261.461 11.792V9.69602L261.621 8.25602L261.509 6.81602V4.27202H262.597V11.648C262.597 13.0987 262.239 14.16 261.525 14.832C260.821 15.5147 259.775 15.856 258.389 15.856ZM258.181 12.352C257.381 12.352 256.661 12.1813 256.021 11.84C255.381 11.488 254.874 11.0027 254.501 10.384C254.138 9.76535 253.957 9.05602 253.957 8.25602C253.957 7.45602 254.138 6.75202 254.501 6.14402C254.874 5.52535 255.381 5.04535 256.021 4.70402C256.661 4.36268 257.381 4.19202 258.181 4.19202C258.927 4.19202 259.599 4.34668 260.197 4.65602C260.794 4.96535 261.269 5.42402 261.621 6.03202C261.973 6.64002 262.149 7.38135 262.149 8.25602C262.149 9.13068 261.973 9.87202 261.621 10.48C261.269 11.088 260.794 11.552 260.197 11.872C259.599 12.192 258.927 12.352 258.181 12.352ZM258.293 11.344C258.911 11.344 259.461 11.216 259.941 10.96C260.421 10.6934 260.799 10.3307 261.077 9.87202C261.354 9.40268 261.493 8.86402 261.493 8.25602C261.493 7.64802 261.354 7.11468 261.077 6.65602C260.799 6.19735 260.421 5.84002 259.941 5.58402C259.461 5.31735 258.911 5.18402 258.293 5.18402C257.685 5.18402 257.135 5.31735 256.645 5.58402C256.165 5.84002 255.786 6.19735 255.509 6.65602C255.242 7.11468 255.109 7.64802 255.109 8.25602C255.109 8.86402 255.242 9.40268 255.509 9.87202C255.786 10.3307 256.165 10.6934 256.645 10.96C257.135 11.216 257.685 11.344 258.293 11.344Z" fill="#A5A9AC"/>
<path d="M248.716 12.752C247.842 12.752 247.074 12.5707 246.412 12.208C245.751 11.8347 245.234 11.328 244.86 10.688C244.487 10.0374 244.3 9.29602 244.3 8.46402C244.3 7.63202 244.476 6.89602 244.828 6.25602C245.191 5.61602 245.682 5.11468 246.3 4.75202C246.93 4.37868 247.634 4.19202 248.412 4.19202C249.202 4.19202 249.9 4.37335 250.508 4.73602C251.127 5.08802 251.612 5.58935 251.964 6.24002C252.316 6.88002 252.492 7.62135 252.492 8.46402C252.492 8.51735 252.487 8.57602 252.476 8.64002C252.476 8.69335 252.476 8.75202 252.476 8.81602H245.164V7.96802H251.868L251.42 8.30402C251.42 7.69602 251.287 7.15735 251.02 6.68802C250.764 6.20802 250.412 5.83468 249.964 5.56802C249.516 5.30135 248.999 5.16802 248.412 5.16802C247.836 5.16802 247.319 5.30135 246.86 5.56802C246.402 5.83468 246.044 6.20802 245.788 6.68802C245.532 7.16802 245.404 7.71735 245.404 8.33602V8.51202C245.404 9.15202 245.543 9.71735 245.82 10.208C246.108 10.688 246.503 11.0667 247.004 11.344C247.516 11.6107 248.098 11.744 248.748 11.744C249.26 11.744 249.735 11.6533 250.172 11.472C250.62 11.2907 251.004 11.0134 251.324 10.64L251.964 11.376C251.591 11.824 251.122 12.1654 250.556 12.4C250.002 12.6347 249.388 12.752 248.716 12.752Z" fill="#A5A9AC"/>
<path d="M238.929 12.672V4.27202H240.017V6.56002L239.905 6.16002C240.14 5.52002 240.535 5.03468 241.089 4.70402C241.644 4.36268 242.332 4.19202 243.153 4.19202V5.29602C243.111 5.29602 243.068 5.29602 243.025 5.29602C242.983 5.28535 242.94 5.28002 242.897 5.28002C242.012 5.28002 241.319 5.55202 240.817 6.09602C240.316 6.62935 240.065 7.39202 240.065 8.38402V12.672H238.929Z" fill="#A5A9AC"/>
<path d="M228.32 12.672V4.27202H229.408V6.56002L229.296 6.16002C229.531 5.52002 229.925 5.03468 230.48 4.70402C231.035 4.36268 231.723 4.19202 232.544 4.19202V5.29602C232.501 5.29602 232.459 5.29602 232.416 5.29602C232.373 5.28535 232.331 5.28002 232.288 5.28002C231.403 5.28002 230.709 5.55202 230.208 6.09602C229.707 6.62935 229.456 7.39202 229.456 8.38402V12.672H228.32Z" fill="#A5A9AC"/>
<path d="M221.042 12.752C220.328 12.752 219.704 12.6186 219.17 12.352C218.637 12.0853 218.221 11.6853 217.922 11.152C217.634 10.6186 217.49 9.95197 217.49 9.15197V4.27197H218.626V9.02397C218.626 9.91997 218.845 10.5973 219.282 11.056C219.73 11.504 220.354 11.728 221.154 11.728C221.741 11.728 222.248 11.6106 222.674 11.376C223.112 11.1306 223.442 10.7786 223.666 10.32C223.901 9.86131 224.018 9.31197 224.018 8.67197V4.27197H225.154V12.672H224.066V10.368L224.242 10.784C223.976 11.4026 223.56 11.888 222.994 12.24C222.44 12.5813 221.789 12.752 221.042 12.752Z" fill="#A5A9AC"/>
<path d="M210.963 12.752C210.152 12.752 209.422 12.5707 208.771 12.208C208.131 11.8347 207.624 11.328 207.251 10.688C206.878 10.0374 206.691 9.29602 206.691 8.46402C206.691 7.62135 206.878 6.88002 207.251 6.24002C207.624 5.60002 208.131 5.09868 208.771 4.73602C209.411 4.37335 210.142 4.19202 210.963 4.19202C211.795 4.19202 212.531 4.37335 213.171 4.73602C213.822 5.09868 214.328 5.60002 214.691 6.24002C215.064 6.88002 215.251 7.62135 215.251 8.46402C215.251 9.29602 215.064 10.0374 214.691 10.688C214.328 11.328 213.822 11.8347 213.171 12.208C212.52 12.5707 211.784 12.752 210.963 12.752ZM210.963 11.744C211.571 11.744 212.11 11.6107 212.579 11.344C213.048 11.0667 213.416 10.6827 213.683 10.192C213.96 9.69068 214.099 9.11468 214.099 8.46402C214.099 7.80268 213.96 7.22668 213.683 6.73602C213.416 6.24535 213.048 5.86668 212.579 5.60002C212.11 5.32268 211.576 5.18402 210.979 5.18402C210.382 5.18402 209.848 5.32268 209.379 5.60002C208.91 5.86668 208.536 6.24535 208.259 6.73602C207.982 7.22668 207.843 7.80268 207.843 8.46402C207.843 9.11468 207.982 9.69068 208.259 10.192C208.536 10.6827 208.91 11.0667 209.379 11.344C209.848 11.6107 210.376 11.744 210.963 11.744Z" fill="#A5A9AC"/>
<path d="M199.165 15.856C198.771 15.856 198.392 15.792 198.029 15.664C197.677 15.536 197.373 15.344 197.117 15.088L197.645 14.24C197.859 14.4426 198.088 14.5973 198.333 14.704C198.589 14.8213 198.872 14.88 199.181 14.88C199.555 14.88 199.875 14.7733 200.141 14.56C200.419 14.3573 200.68 13.9946 200.925 13.472L201.469 12.24L201.597 12.064L205.053 4.27197H206.173L201.965 13.68C201.731 14.224 201.469 14.656 201.181 14.976C200.904 15.296 200.6 15.52 200.269 15.648C199.939 15.7866 199.571 15.856 199.165 15.856ZM201.405 12.912L197.533 4.27197H198.717L202.141 11.984L201.405 12.912Z" fill="#A5A9AC"/>
<path d="M189.684 12.672V3.21597C189.684 2.4693 189.903 1.86664 190.34 1.40797C190.777 0.949304 191.407 0.719971 192.228 0.719971C192.548 0.719971 192.857 0.762637 193.156 0.847971C193.455 0.933304 193.705 1.06664 193.908 1.24797L193.524 2.09597C193.364 1.9573 193.177 1.85597 192.964 1.79197C192.751 1.7173 192.521 1.67997 192.276 1.67997C191.796 1.67997 191.428 1.8133 191.172 2.07997C190.916 2.34664 190.788 2.7413 190.788 3.26397V4.54397L190.82 5.07197V12.672H189.684ZM188.18 5.21597V4.27197H193.38V5.21597H188.18Z" fill="#A5A9AC"/>
<path d="M182.885 12.752C182.074 12.752 181.343 12.5707 180.693 12.208C180.053 11.8347 179.546 11.328 179.173 10.688C178.799 10.0374 178.613 9.29602 178.613 8.46402C178.613 7.62135 178.799 6.88002 179.173 6.24002C179.546 5.60002 180.053 5.09868 180.693 4.73602C181.333 4.37335 182.063 4.19202 182.885 4.19202C183.717 4.19202 184.453 4.37335 185.093 4.73602C185.743 5.09868 186.25 5.60002 186.613 6.24002C186.986 6.88002 187.173 7.62135 187.173 8.46402C187.173 9.29602 186.986 10.0374 186.613 10.688C186.25 11.328 185.743 11.8347 185.093 12.208C184.442 12.5707 183.706 12.752 182.885 12.752ZM182.885 11.744C183.493 11.744 184.031 11.6107 184.501 11.344C184.97 11.0667 185.338 10.6827 185.605 10.192C185.882 9.69068 186.021 9.11468 186.021 8.46402C186.021 7.80268 185.882 7.22668 185.605 6.73602C185.338 6.24535 184.97 5.86668 184.501 5.60002C184.031 5.32268 183.498 5.18402 182.901 5.18402C182.303 5.18402 181.77 5.32268 181.301 5.60002C180.831 5.86668 180.458 6.24535 180.181 6.73602C179.903 7.22668 179.765 7.80268 179.765 8.46402C179.765 9.11468 179.903 9.69068 180.181 10.192C180.458 10.6827 180.831 11.0667 181.301 11.344C181.77 11.6107 182.298 11.744 182.885 11.744Z" fill="#A5A9AC"/>
<path d="M169.185 12.752C168.31 12.752 167.542 12.5707 166.881 12.208C166.22 11.8347 165.702 11.328 165.329 10.688C164.956 10.0374 164.769 9.29602 164.769 8.46402C164.769 7.63202 164.945 6.89602 165.297 6.25602C165.66 5.61602 166.15 5.11468 166.769 4.75202C167.398 4.37868 168.102 4.19202 168.881 4.19202C169.67 4.19202 170.369 4.37335 170.977 4.73602C171.596 5.08802 172.081 5.58935 172.433 6.24002C172.785 6.88002 172.961 7.62135 172.961 8.46402C172.961 8.51735 172.956 8.57602 172.945 8.64002C172.945 8.69335 172.945 8.75202 172.945 8.81602H165.633V7.96802H172.337L171.889 8.30402C171.889 7.69602 171.756 7.15735 171.489 6.68802C171.233 6.20802 170.881 5.83468 170.433 5.56802C169.985 5.30135 169.468 5.16802 168.881 5.16802C168.305 5.16802 167.788 5.30135 167.329 5.56802C166.87 5.83468 166.513 6.20802 166.257 6.68802C166.001 7.16802 165.873 7.71735 165.873 8.33602V8.51202C165.873 9.15202 166.012 9.71735 166.289 10.208C166.577 10.688 166.972 11.0667 167.473 11.344C167.985 11.6107 168.566 11.744 169.217 11.744C169.729 11.744 170.204 11.6533 170.641 11.472C171.089 11.2907 171.473 11.0134 171.793 10.64L172.433 11.376C172.06 11.824 171.59 12.1654 171.025 12.4C170.47 12.6347 169.857 12.752 169.185 12.752Z" fill="#A5A9AC"/>
<path d="M158.117 12.7519C157.317 12.7519 156.597 12.5706 155.957 12.2079C155.328 11.8453 154.832 11.3439 154.469 10.7039C154.107 10.0533 153.925 9.30659 153.925 8.46393C153.925 7.61059 154.107 6.86393 154.469 6.22393C154.832 5.58393 155.328 5.08793 155.957 4.73593C156.597 4.37326 157.317 4.19193 158.117 4.19193C158.853 4.19193 159.509 4.35726 160.085 4.68793C160.672 5.01859 161.136 5.50393 161.477 6.14393C161.829 6.77326 162.005 7.54659 162.005 8.46393C162.005 9.37059 161.835 10.1439 161.493 10.7839C161.152 11.4239 160.688 11.9146 160.101 12.2559C159.525 12.5866 158.864 12.7519 158.117 12.7519ZM158.197 11.7439C158.795 11.7439 159.328 11.6106 159.797 11.3439C160.277 11.0666 160.651 10.6826 160.917 10.1919C161.195 9.69059 161.333 9.11459 161.333 8.46393C161.333 7.80259 161.195 7.22659 160.917 6.73593C160.651 6.24526 160.277 5.86659 159.797 5.59993C159.328 5.32259 158.795 5.18393 158.197 5.18393C157.611 5.18393 157.083 5.32259 156.613 5.59993C156.144 5.86659 155.771 6.24526 155.493 6.73593C155.216 7.22659 155.077 7.80259 155.077 8.46393C155.077 9.11459 155.216 9.69059 155.493 10.1919C155.771 10.6826 156.144 11.0666 156.613 11.3439C157.083 11.6106 157.611 11.7439 158.197 11.7439ZM161.365 12.6719V10.1439L161.477 8.44793L161.317 6.75193V0.799927H162.453V12.6719H161.365Z" fill="#A5A9AC"/>
<path d="M148.166 12.752C147.355 12.752 146.625 12.5707 145.974 12.208C145.334 11.8347 144.827 11.328 144.454 10.688C144.081 10.0374 143.894 9.29602 143.894 8.46402C143.894 7.62135 144.081 6.88002 144.454 6.24002C144.827 5.60002 145.334 5.09868 145.974 4.73602C146.614 4.37335 147.345 4.19202 148.166 4.19202C148.998 4.19202 149.734 4.37335 150.374 4.73602C151.025 5.09868 151.531 5.60002 151.894 6.24002C152.267 6.88002 152.454 7.62135 152.454 8.46402C152.454 9.29602 152.267 10.0374 151.894 10.688C151.531 11.328 151.025 11.8347 150.374 12.208C149.723 12.5707 148.987 12.752 148.166 12.752ZM148.166 11.744C148.774 11.744 149.313 11.6107 149.782 11.344C150.251 11.0667 150.619 10.6827 150.886 10.192C151.163 9.69068 151.302 9.11468 151.302 8.46402C151.302 7.80268 151.163 7.22668 150.886 6.73602C150.619 6.24535 150.251 5.86668 149.782 5.60002C149.313 5.32268 148.779 5.18402 148.182 5.18402C147.585 5.18402 147.051 5.32268 146.582 5.60002C146.113 5.86668 145.739 6.24535 145.462 6.73602C145.185 7.22668 145.046 7.80268 145.046 8.46402C145.046 9.11468 145.185 9.69068 145.462 10.192C145.739 10.6827 146.113 11.0667 146.582 11.344C147.051 11.6107 147.579 11.744 148.166 11.744Z" fill="#A5A9AC"/>
<path d="M139.355 12.752C138.523 12.752 137.776 12.5707 137.115 12.208C136.464 11.8347 135.952 11.328 135.579 10.688C135.206 10.0374 135.019 9.29602 135.019 8.46402C135.019 7.62135 135.206 6.88002 135.579 6.24002C135.952 5.60002 136.464 5.09868 137.115 4.73602C137.776 4.37335 138.523 4.19202 139.355 4.19202C140.07 4.19202 140.715 4.33068 141.291 4.60802C141.867 4.88535 142.32 5.30135 142.651 5.85602L141.803 6.43202C141.515 6.00535 141.158 5.69068 140.731 5.48802C140.304 5.28535 139.84 5.18402 139.339 5.18402C138.742 5.18402 138.203 5.32268 137.723 5.60002C137.243 5.86668 136.864 6.24535 136.587 6.73602C136.31 7.22668 136.171 7.80268 136.171 8.46402C136.171 9.12535 136.31 9.70135 136.587 10.192C136.864 10.6827 137.243 11.0667 137.723 11.344C138.203 11.6107 138.742 11.744 139.339 11.744C139.84 11.744 140.304 11.6427 140.731 11.44C141.158 11.2374 141.515 10.928 141.803 10.512L142.651 11.088C142.32 11.632 141.867 12.048 141.291 12.336C140.715 12.6134 140.07 12.752 139.355 12.752Z" fill="#A5A9AC"/>
<path d="M127.506 12.672V10.816L127.458 10.512V7.40802C127.458 6.69335 127.255 6.14402 126.85 5.76002C126.455 5.37602 125.863 5.18402 125.074 5.18402C124.53 5.18402 124.013 5.27468 123.522 5.45602C123.031 5.63735 122.615 5.87735 122.274 6.17602L121.762 5.32802C122.189 4.96535 122.701 4.68802 123.298 4.49602C123.895 4.29335 124.525 4.19202 125.186 4.19202C126.274 4.19202 127.111 4.46402 127.698 5.00802C128.295 5.54135 128.594 6.35735 128.594 7.45602V12.672H127.506ZM124.61 12.752C123.981 12.752 123.431 12.6507 122.962 12.448C122.503 12.2347 122.151 11.9467 121.906 11.584C121.661 11.2107 121.538 10.784 121.538 10.304C121.538 9.86668 121.639 9.47202 121.842 9.12002C122.055 8.75735 122.397 8.46935 122.866 8.25602C123.346 8.03202 123.986 7.92002 124.786 7.92002H127.682V8.76802H124.818C124.007 8.76802 123.442 8.91202 123.122 9.20002C122.813 9.48802 122.658 9.84535 122.658 10.272C122.658 10.752 122.845 11.136 123.218 11.424C123.591 11.712 124.114 11.856 124.786 11.856C125.426 11.856 125.975 11.712 126.434 11.424C126.903 11.1254 127.245 10.6987 127.458 10.144L127.714 10.928C127.501 11.4827 127.127 11.9254 126.594 12.256C126.071 12.5867 125.41 12.752 124.61 12.752Z" fill="#A5A9AC"/>
<path d="M111.966 12.752C111.092 12.752 110.324 12.5707 109.662 12.208C109.001 11.8347 108.484 11.328 108.11 10.688C107.737 10.0374 107.55 9.29602 107.55 8.46402C107.55 7.63202 107.726 6.89602 108.078 6.25602C108.441 5.61602 108.932 5.11468 109.55 4.75202C110.18 4.37868 110.884 4.19202 111.662 4.19202C112.452 4.19202 113.15 4.37335 113.758 4.73602C114.377 5.08802 114.862 5.58935 115.214 6.24002C115.566 6.88002 115.742 7.62135 115.742 8.46402C115.742 8.51735 115.737 8.57602 115.726 8.64002C115.726 8.69335 115.726 8.75202 115.726 8.81602H108.414V7.96802H115.118L114.67 8.30402C114.67 7.69602 114.537 7.15735 114.27 6.68802C114.014 6.20802 113.662 5.83468 113.214 5.56802C112.766 5.30135 112.249 5.16802 111.662 5.16802C111.086 5.16802 110.569 5.30135 110.11 5.56802C109.652 5.83468 109.294 6.20802 109.038 6.68802C108.782 7.16802 108.654 7.71735 108.654 8.33602V8.51202C108.654 9.15202 108.793 9.71735 109.07 10.208C109.358 10.688 109.753 11.0667 110.254 11.344C110.766 11.6107 111.348 11.744 111.998 11.744C112.51 11.744 112.985 11.6533 113.422 11.472C113.87 11.2907 114.254 11.0134 114.574 10.64L115.214 11.376C114.841 11.824 114.372 12.1654 113.806 12.4C113.252 12.6347 112.638 12.752 111.966 12.752Z" fill="#A5A9AC"/>
<path d="M102.179 12.672V4.27202H103.267V6.56002L103.155 6.16002C103.39 5.52002 103.785 5.03468 104.339 4.70402C104.894 4.36268 105.582 4.19202 106.403 4.19202V5.29602C106.361 5.29602 106.318 5.29602 106.275 5.29602C106.233 5.28535 106.19 5.28002 106.147 5.28002C105.262 5.28002 104.569 5.55202 104.067 6.09602C103.566 6.62935 103.315 7.39202 103.315 8.38402V12.672H102.179Z" fill="#A5A9AC"/>
<path d="M98.0061 12.672V10.816L97.9581 10.512V7.40802C97.9581 6.69335 97.7554 6.14402 97.3501 5.76002C96.9554 5.37602 96.3634 5.18402 95.5741 5.18402C95.0301 5.18402 94.5128 5.27468 94.0221 5.45602C93.5314 5.63735 93.1154 5.87735 92.7741 6.17602L92.2621 5.32802C92.6888 4.96535 93.2008 4.68802 93.7981 4.49602C94.3954 4.29335 95.0248 4.19202 95.6861 4.19202C96.7741 4.19202 97.6114 4.46402 98.1981 5.00802C98.7954 5.54135 99.0941 6.35735 99.0941 7.45602V12.672H98.0061ZM95.1101 12.752C94.4808 12.752 93.9314 12.6507 93.4621 12.448C93.0034 12.2347 92.6514 11.9467 92.4061 11.584C92.1608 11.2107 92.0381 10.784 92.0381 10.304C92.0381 9.86668 92.1394 9.47202 92.3421 9.12002C92.5554 8.75735 92.8968 8.46935 93.3661 8.25602C93.8461 8.03202 94.4861 7.92002 95.2861 7.92002H98.1821V8.76802H95.3181C94.5074 8.76802 93.9421 8.91202 93.6221 9.20002C93.3128 9.48802 93.1581 9.84535 93.1581 10.272C93.1581 10.752 93.3448 11.136 93.7181 11.424C94.0914 11.712 94.6141 11.856 95.2861 11.856C95.9261 11.856 96.4754 11.712 96.9341 11.424C97.4034 11.1254 97.7448 10.6987 97.9581 10.144L98.2141 10.928C98.0008 11.4827 97.6274 11.9254 97.0941 12.256C96.5714 12.5867 95.9101 12.752 95.1101 12.752Z" fill="#A5A9AC"/>
<path d="M86.2174 4.19193C86.9001 4.19193 87.4974 4.32526 88.0094 4.59193C88.5321 4.84793 88.9374 5.24259 89.2254 5.77593C89.5241 6.30926 89.6734 6.98126 89.6734 7.79193V12.6719H88.5374V7.90393C88.5374 7.01859 88.3134 6.35193 87.8654 5.90393C87.4281 5.44526 86.8094 5.21593 86.0094 5.21593C85.4121 5.21593 84.8894 5.33859 84.4414 5.58393C84.0041 5.81859 83.6628 6.16526 83.4174 6.62393C83.1828 7.07193 83.0654 7.61593 83.0654 8.25593V12.6719H81.9294V0.799927H83.0654V6.57593L82.8414 6.14393C83.1081 5.53593 83.5348 5.06126 84.1214 4.71993C84.7081 4.36793 85.4068 4.19193 86.2174 4.19193Z" fill="#A5A9AC"/>
<path d="M76.373 12.752C75.6796 12.752 75.0236 12.656 74.405 12.464C73.7863 12.2614 73.301 12.0107 72.949 11.712L73.461 10.816C73.8023 11.072 74.2396 11.296 74.773 11.488C75.3063 11.6694 75.8663 11.76 76.453 11.76C77.253 11.76 77.829 11.6373 78.181 11.392C78.533 11.136 78.709 10.8 78.709 10.384C78.709 10.0747 78.6076 9.83468 78.405 9.66402C78.213 9.48268 77.957 9.34935 77.637 9.26402C77.317 9.16802 76.9596 9.08802 76.565 9.02402C76.1703 8.96002 75.7756 8.88535 75.381 8.80002C74.997 8.71468 74.645 8.59202 74.325 8.43202C74.005 8.26135 73.7436 8.03202 73.541 7.74402C73.349 7.45602 73.253 7.07202 73.253 6.59202C73.253 6.13335 73.381 5.72268 73.637 5.36002C73.893 4.99735 74.2663 4.71468 74.757 4.51202C75.2583 4.29868 75.8663 4.19202 76.581 4.19202C77.125 4.19202 77.669 4.26668 78.213 4.41602C78.757 4.55468 79.205 4.74135 79.557 4.97602L79.061 5.88802C78.6876 5.63202 78.2876 5.45068 77.861 5.34402C77.4343 5.22668 77.0076 5.16802 76.581 5.16802C75.8236 5.16802 75.2636 5.30135 74.901 5.56802C74.549 5.82402 74.373 6.15468 74.373 6.56002C74.373 6.88002 74.469 7.13068 74.661 7.31202C74.8636 7.49335 75.125 7.63735 75.445 7.74402C75.7756 7.84002 76.133 7.92002 76.517 7.98402C76.9116 8.04802 77.301 8.12802 77.685 8.22402C78.0796 8.30935 78.437 8.43202 78.757 8.59202C79.0876 8.74135 79.349 8.96002 79.541 9.24802C79.7436 9.52535 79.845 9.89335 79.845 10.352C79.845 10.8427 79.7063 11.2693 79.429 11.632C79.1623 11.984 78.7676 12.2614 78.245 12.464C77.733 12.656 77.109 12.752 76.373 12.752Z" fill="#A5A9AC"/>
<path d="M63.8413 12.752C62.9666 12.752 62.1986 12.5707 61.5373 12.208C60.876 11.8347 60.3586 11.328 59.9853 10.688C59.612 10.0374 59.4253 9.29602 59.4253 8.46402C59.4253 7.63202 59.6013 6.89602 59.9533 6.25602C60.316 5.61602 60.8066 5.11468 61.4253 4.75202C62.0546 4.37868 62.7586 4.19202 63.5373 4.19202C64.3266 4.19202 65.0253 4.37335 65.6333 4.73602C66.252 5.08802 66.7373 5.58935 67.0893 6.24002C67.4413 6.88002 67.6173 7.62135 67.6173 8.46402C67.6173 8.51735 67.612 8.57602 67.6013 8.64002C67.6013 8.69335 67.6013 8.75202 67.6013 8.81602H60.2893V7.96802H66.9933L66.5453 8.30402C66.5453 7.69602 66.412 7.15735 66.1453 6.68802C65.8893 6.20802 65.5373 5.83468 65.0893 5.56802C64.6413 5.30135 64.124 5.16802 63.5373 5.16802C62.9613 5.16802 62.444 5.30135 61.9853 5.56802C61.5266 5.83468 61.1693 6.20802 60.9133 6.68802C60.6573 7.16802 60.5293 7.71735 60.5293 8.33602V8.51202C60.5293 9.15202 60.668 9.71735 60.9453 10.208C61.2333 10.688 61.628 11.0667 62.1293 11.344C62.6413 11.6107 63.2226 11.744 63.8733 11.744C64.3853 11.744 64.86 11.6533 65.2973 11.472C65.7453 11.2907 66.1293 11.0134 66.4493 10.64L67.0893 11.376C66.716 11.824 66.2466 12.1654 65.6813 12.4C65.1266 12.6347 64.5133 12.752 63.8413 12.752Z" fill="#A5A9AC"/>
<path d="M53.9958 12.672L50.2678 4.27197H51.4518L54.8758 12.064H54.3158L57.7878 4.27197H58.9078L55.1638 12.672H53.9958Z" fill="#A5A9AC"/>
<path d="M47.8186 12.672V10.816L47.7706 10.512V7.40802C47.7706 6.69335 47.5679 6.14402 47.1626 5.76002C46.7679 5.37602 46.1759 5.18402 45.3866 5.18402C44.8426 5.18402 44.3252 5.27468 43.8346 5.45602C43.3439 5.63735 42.9279 5.87735 42.5866 6.17602L42.0746 5.32802C42.5013 4.96535 43.0133 4.68802 43.6106 4.49602C44.2079 4.29335 44.8373 4.19202 45.4986 4.19202C46.5866 4.19202 47.4239 4.46402 48.0106 5.00802C48.6079 5.54135 48.9066 6.35735 48.9066 7.45602V12.672H47.8186ZM44.9226 12.752C44.2933 12.752 43.7439 12.6507 43.2746 12.448C42.8159 12.2347 42.4639 11.9467 42.2186 11.584C41.9733 11.2107 41.8506 10.784 41.8506 10.304C41.8506 9.86668 41.9519 9.47202 42.1546 9.12002C42.3679 8.75735 42.7093 8.46935 43.1786 8.25602C43.6586 8.03202 44.2986 7.92002 45.0986 7.92002H47.9946V8.76802H45.1306C44.3199 8.76802 43.7546 8.91202 43.4346 9.20002C43.1253 9.48802 42.9706 9.84535 42.9706 10.272C42.9706 10.752 43.1573 11.136 43.5306 11.424C43.9039 11.712 44.4266 11.856 45.0986 11.856C45.7386 11.856 46.2879 11.712 46.7466 11.424C47.2159 11.1254 47.5573 10.6987 47.7706 10.144L48.0266 10.928C47.8133 11.4827 47.4399 11.9254 46.9066 12.256C46.3839 12.5867 45.7226 12.752 44.9226 12.752Z" fill="#A5A9AC"/>
<path d="M36.0299 4.19193C36.7126 4.19193 37.3099 4.32526 37.8219 4.59193C38.3446 4.84793 38.7499 5.24259 39.0379 5.77593C39.3366 6.30926 39.4859 6.98126 39.4859 7.79193V12.6719H38.3499V7.90393C38.3499 7.01859 38.1259 6.35193 37.6779 5.90393C37.2406 5.44526 36.6219 5.21593 35.8219 5.21593C35.2246 5.21593 34.7019 5.33859 34.2539 5.58393C33.8166 5.81859 33.4753 6.16526 33.2299 6.62393C32.9953 7.07193 32.8779 7.61593 32.8779 8.25593V12.6719H31.7419V0.799927H32.8779V6.57593L32.6539 6.14393C32.9206 5.53593 33.3473 5.06126 33.9339 4.71993C34.5206 4.36793 35.2193 4.19193 36.0299 4.19193Z" fill="#A5A9AC"/>
<path d="M21.4663 12.752C20.5916 12.752 19.8236 12.5707 19.1623 12.208C18.501 11.8347 17.9836 11.328 17.6103 10.688C17.237 10.0374 17.0503 9.29602 17.0503 8.46402C17.0503 7.63202 17.2263 6.89602 17.5783 6.25602C17.941 5.61602 18.4316 5.11468 19.0503 4.75202C19.6796 4.37868 20.3836 4.19202 21.1623 4.19202C21.9516 4.19202 22.6503 4.37335 23.2583 4.73602C23.877 5.08802 24.3623 5.58935 24.7143 6.24002C25.0663 6.88002 25.2423 7.62135 25.2423 8.46402C25.2423 8.51735 25.237 8.57602 25.2263 8.64002C25.2263 8.69335 25.2263 8.75202 25.2263 8.81602H17.9143V7.96802H24.6183L24.1703 8.30402C24.1703 7.69602 24.037 7.15735 23.7703 6.68802C23.5143 6.20802 23.1623 5.83468 22.7143 5.56802C22.2663 5.30135 21.749 5.16802 21.1623 5.16802C20.5863 5.16802 20.069 5.30135 19.6103 5.56802C19.1516 5.83468 18.7943 6.20802 18.5383 6.68802C18.2823 7.16802 18.1543 7.71735 18.1543 8.33602V8.51202C18.1543 9.15202 18.293 9.71735 18.5703 10.208C18.8583 10.688 19.253 11.0667 19.7543 11.344C20.2663 11.6107 20.8476 11.744 21.4983 11.744C22.0103 11.744 22.485 11.6533 22.9223 11.472C23.3703 11.2907 23.7543 11.0134 24.0743 10.64L24.7143 11.376C24.341 11.824 23.8716 12.1654 23.3063 12.4C22.7516 12.6347 22.1383 12.752 21.4663 12.752Z" fill="#A5A9AC"/>
<path d="M3.776 12.6719L0 1.47192H1.216L4.752 12.0159H4.144L7.792 1.47192H8.88L12.48 12.0159H11.904L15.472 1.47192H16.608L12.832 12.6719H11.584L8.144 2.67192H8.464L5.008 12.6719H3.776Z" fill="#A5A9AC"/>
</svg>
