<svg width="1440" height="77" viewBox="0 0 1440 77" fill="none" xmlns="http://www.w3.org/2000/svg">
<rect width="1440" height="77" fill="#1C4E8E"/>
<rect x="288" y="27" width="36" height="24" rx="2.4" fill="white"/>
<path fill-rule="evenodd" clip-rule="evenodd" d="M294.881 35.4004L291.6 42.6616H295.528L296.015 41.5039H297.128L297.615 42.6616H301.939V41.778L302.324 42.6616H304.561L304.946 41.7593V42.6616H313.938L315.032 41.5339L316.055 42.6616L320.674 42.671L317.382 39.0513L320.674 35.4004H316.127L315.063 36.5072L314.071 35.4004H304.289L303.449 37.2746L302.589 35.4004H298.669V36.254L298.233 35.4004H294.881ZM308.309 36.4315H313.473L315.052 38.1375L316.683 36.4315H318.262L315.862 39.0503L318.262 41.6388H316.611L315.032 39.913L313.393 41.6388H308.309V36.4315ZM309.584 38.4615V37.5094H312.806L314.212 39.0305L312.744 40.56H309.584V39.5216H312.401V38.4615H309.584ZM295.641 36.4315H297.556L299.733 41.3554V36.4315H301.83L303.511 39.9619L305.06 36.4315H307.147V41.6419H305.877L305.867 37.5591L304.016 41.6419H302.88L301.018 37.5591V41.6419H298.405L297.91 40.4738H295.234L294.74 41.6409H293.34L295.641 36.4315ZM295.691 39.394L296.573 37.3131L297.453 39.394H295.691Z" fill="#1F72CD"/>
<rect x="242" y="27" width="36" height="24" rx="2.4" fill="white"/>
<path fill-rule="evenodd" clip-rule="evenodd" d="M258.953 41.9687V38.9417H260.515C261.156 38.9417 261.696 38.7272 262.136 38.3041L262.242 38.1968C263.047 37.3209 262.994 35.9564 262.136 35.146C261.708 34.717 261.12 34.4846 260.515 34.4965H258.007V41.9687H258.953ZM258.953 38.024V35.4141H260.539C260.88 35.4141 261.203 35.5452 261.444 35.7836C261.955 36.2841 261.967 37.1183 261.473 37.6367C261.232 37.8929 260.892 38.0359 260.539 38.024H258.953Z" fill="#3C4043"/>
<path fill-rule="evenodd" clip-rule="evenodd" d="M266.653 37.2554C266.248 36.88 265.696 36.6893 264.997 36.6893C264.098 36.6893 263.423 37.023 262.976 37.6844L263.81 38.2147C264.116 37.7619 264.533 37.5354 265.061 37.5354C265.396 37.5354 265.719 37.6606 265.972 37.887C266.218 38.1015 266.359 38.4114 266.359 38.7391V38.9596C265.995 38.757 265.537 38.6497 264.973 38.6497C264.315 38.6497 263.787 38.8046 263.393 39.1204C263 39.4362 262.8 39.8533 262.8 40.3837C262.788 40.8663 262.994 41.3251 263.358 41.635C263.728 41.9687 264.198 42.1355 264.75 42.1355C265.402 42.1355 265.919 41.8435 266.312 41.2596H266.353V41.9687H267.258V38.8165C267.258 38.1551 267.058 37.6308 266.653 37.2554ZM264.087 41.0272C263.893 40.8842 263.775 40.6518 263.775 40.4015C263.775 40.1215 263.904 39.8891 264.157 39.7044C264.415 39.5197 264.739 39.4243 265.12 39.4243C265.649 39.4184 266.06 39.5375 266.354 39.7759C266.354 40.1811 266.195 40.5326 265.884 40.8306C265.602 41.1166 265.22 41.2775 264.821 41.2775C264.556 41.2834 264.298 41.194 264.087 41.0272Z" fill="#3C4043"/>
<path d="M269.29 44.2151L272.45 36.8561H271.422L269.96 40.5267H269.942L268.444 36.8561H267.417L269.49 41.6409L268.315 44.2151H269.29Z" fill="#3C4043"/>
<path d="M255.689 38.2862C255.689 37.9942 255.665 37.7023 255.618 37.4163H251.63V39.0668H253.915C253.821 39.5971 253.515 40.0738 253.069 40.3717V41.4443H254.432C255.23 40.6995 255.689 39.5971 255.689 38.2862Z" fill="#4285F4"/>
<path d="M251.63 42.4811C252.77 42.4811 253.733 42.0998 254.432 41.4443L253.069 40.3717C252.687 40.6339 252.2 40.7829 251.63 40.7829C250.526 40.7829 249.592 40.0261 249.257 39.0132H247.854V40.1215C248.57 41.5694 250.033 42.4811 251.63 42.4811Z" fill="#34A853"/>
<path d="M249.257 39.0132C249.081 38.4829 249.081 37.9049 249.258 37.3686V36.2663H247.854C247.249 37.4759 247.249 38.9059 247.854 40.1155L249.257 39.0132Z" fill="#FBBC04"/>
<path d="M251.63 35.5989C252.235 35.5869 252.817 35.8193 253.251 36.2424L254.461 35.0149C253.692 34.288 252.682 33.8887 251.63 33.9006C250.033 33.9006 248.57 34.8183 247.854 36.2663L249.257 37.3745C249.592 36.3556 250.526 35.5989 251.63 35.5989Z" fill="#EA4335"/>
<rect x="150" y="27" width="36" height="24" rx="2.4" fill="white"/>
<path d="M174.374 34.8699C173.931 34.694 173.228 34.4998 172.358 34.4998C170.138 34.4998 168.575 35.6835 168.565 37.376C168.547 38.6247 169.684 39.3182 170.535 39.7346C171.405 40.16 171.701 40.4377 171.701 40.8169C171.692 41.3993 170.998 41.6678 170.351 41.6678C169.453 41.6678 168.972 41.5294 168.242 41.2054L167.946 41.0665L167.631 43.018C168.158 43.2582 169.13 43.4714 170.138 43.4807C172.497 43.4807 174.032 42.3153 174.051 40.5117C174.059 39.522 173.459 38.7637 172.164 38.144C171.377 37.7462 170.896 37.478 170.896 37.071C170.905 36.701 171.303 36.322 172.191 36.322C172.921 36.3034 173.458 36.4791 173.865 36.6549L174.068 36.7472L174.374 34.8699Z" fill="#3362AB"/>
<path d="M166.225 43.3512H163.977L165.383 34.6573H167.631L166.225 43.3512Z" fill="#3362AB"/>
<path fill-rule="evenodd" clip-rule="evenodd" d="M180.137 34.6573H178.398C177.862 34.6573 177.454 34.8144 177.223 35.3787L173.884 43.351H176.243C176.243 43.351 176.631 42.278 176.714 42.0469H179.601C179.665 42.3521 179.869 43.351 179.869 43.351H181.95L180.137 34.6573ZM177.362 40.2712C177.547 39.7718 178.259 37.8388 178.259 37.8388C178.256 37.8462 178.285 37.7659 178.328 37.6462L178.328 37.6447L178.329 37.6437C178.393 37.4649 178.489 37.1994 178.555 37.0065L178.712 37.7556C178.712 37.7556 179.138 39.8366 179.23 40.2712H177.362Z" fill="#3362AB"/>
<path d="M162.1 34.6573L159.898 40.5857L159.658 39.3834L159.657 39.3826L158.871 35.3881C158.742 34.8329 158.344 34.6757 157.854 34.6573H154.237L154.2 34.833C155.082 35.0586 155.871 35.3836 156.563 35.7878L158.566 43.3419H160.943L164.477 34.6573H162.1Z" fill="#3362AB"/>
<rect x="196" y="27" width="36" height="24" rx="2.4" fill="white"/>
<path d="M226 38.9166C226 43.0161 222.683 46.3329 218.584 46.3329C216.853 46.3329 215.267 45.7354 214.01 44.7466C215.741 43.3869 216.833 41.2857 216.833 38.9166C216.833 36.5475 215.72 34.4462 214.01 33.0865C215.267 32.0977 216.853 31.5002 218.584 31.5002C222.683 31.5002 226 34.8376 226 38.9166Z" fill="#F79E1B"/>
<path d="M214.01 33.0865C214.01 33.0865 214.01 33.0865 214.01 33.0865C215.72 34.4462 216.833 36.5475 216.833 38.9166C216.833 41.2857 215.741 43.3869 214.01 44.7466L213.99 44.7466C212.28 43.4075 211.167 41.2857 211.167 38.9166C211.167 36.5475 212.28 34.4462 213.99 33.0866C213.99 33.0865 213.99 33.0866 213.99 33.0866L214.01 33.0865Z" fill="#FF5F00"/>
<path d="M211.167 38.9166C211.167 36.5475 212.28 34.4462 213.99 33.0866C212.733 32.0977 211.147 31.5003 209.416 31.5003C205.317 31.5003 202 34.817 202 38.9166C202 43.0162 205.317 46.3329 209.416 46.3329C211.147 46.3329 212.733 45.7354 213.99 44.7466C212.28 43.4075 211.167 41.2857 211.167 38.9166Z" fill="#EB001B"/>
<rect x="334" y="27" width="36" height="24" rx="2.4" fill="white"/>
<path fill-rule="evenodd" clip-rule="evenodd" d="M357.489 35.2375C357.475 35.3317 357.458 35.4281 357.439 35.527C356.79 38.8718 354.57 40.0273 351.735 40.0273H350.292C349.945 40.0273 349.653 40.28 349.599 40.6234L348.651 46.6635C348.615 46.8891 348.788 47.0922 349.015 47.0922H351.575C351.878 47.0922 352.136 46.8711 352.184 46.5709L352.209 46.4403L352.691 43.3689L352.722 43.2004C352.769 42.8992 353.027 42.6779 353.33 42.6779H353.713C356.194 42.6779 358.135 41.6668 358.703 38.7407C358.94 37.5184 358.817 36.4977 358.19 35.7799C358 35.5635 357.765 35.3838 357.489 35.2375Z" fill="#298FC2"/>
<path fill-rule="evenodd" clip-rule="evenodd" d="M356.81 34.9658C356.711 34.9367 356.609 34.9105 356.504 34.8867C356.398 34.8636 356.29 34.8431 356.179 34.8251C355.79 34.7619 355.363 34.732 354.907 34.732H351.05C350.955 34.732 350.865 34.7535 350.784 34.7925C350.607 34.8783 350.474 35.0474 350.442 35.2543L349.622 40.4714L349.599 40.6235C349.652 40.2801 349.945 40.0274 350.291 40.0274H351.735C354.57 40.0274 356.79 38.8713 357.439 35.5271C357.458 35.4281 357.474 35.3318 357.489 35.2375C357.325 35.15 357.147 35.0752 356.955 35.0115C356.908 34.9957 356.859 34.9805 356.81 34.9658Z" fill="#22284F"/>
<path fill-rule="evenodd" clip-rule="evenodd" d="M350.442 35.2543C350.474 35.0474 350.607 34.8783 350.785 34.7931C350.866 34.754 350.956 34.7324 351.051 34.7324H354.907C355.364 34.7324 355.79 34.7625 356.179 34.8257C356.291 34.8435 356.399 34.8642 356.504 34.8873C356.609 34.9109 356.711 34.9373 356.81 34.9662C356.86 34.981 356.908 34.9963 356.956 35.0115C357.148 35.0753 357.325 35.1506 357.49 35.2375C357.683 34.0015 357.488 33.1599 356.822 32.3978C356.089 31.5588 354.764 31.1997 353.069 31.1997H348.149C347.803 31.1997 347.508 31.4524 347.454 31.7964L345.405 44.8388C345.365 45.0968 345.563 45.3296 345.822 45.3296H348.86L350.442 35.2543Z" fill="#28356A"/>
<path d="M579.831 51.048C579.031 51.048 578.29 50.904 577.607 50.616C576.925 50.328 576.327 49.928 575.815 49.416C575.303 48.8933 574.903 48.2907 574.615 47.608C574.338 46.9253 574.199 46.1893 574.199 45.4C574.199 44.6107 574.343 43.8747 574.631 43.192C574.919 42.5093 575.319 41.912 575.831 41.4C576.343 40.8773 576.941 40.472 577.623 40.184C578.317 39.896 579.063 39.752 579.863 39.752C580.663 39.752 581.405 39.896 582.087 40.184C582.781 40.4613 583.378 40.856 583.879 41.368C584.391 41.88 584.786 42.4773 585.063 43.16C585.351 43.832 585.495 44.568 585.495 45.368C585.495 46.168 585.351 46.9147 585.063 47.608C584.775 48.2907 584.37 48.8933 583.847 49.416C583.335 49.928 582.738 50.328 582.055 50.616C581.373 50.904 580.631 51.048 579.831 51.048ZM579.815 50.456C580.541 50.456 581.207 50.328 581.815 50.072C582.423 49.8053 582.957 49.4427 583.415 48.984C583.885 48.5253 584.247 47.9867 584.503 47.368C584.759 46.7387 584.887 46.072 584.887 45.368C584.887 44.6533 584.759 43.992 584.503 43.384C584.258 42.776 583.906 42.2427 583.447 41.784C582.999 41.3253 582.466 40.9733 581.847 40.728C581.239 40.472 580.578 40.344 579.863 40.344C579.138 40.344 578.466 40.472 577.847 40.728C577.229 40.984 576.69 41.3467 576.231 41.816C575.783 42.2747 575.431 42.808 575.175 43.416C574.919 44.024 574.791 44.6853 574.791 45.4C574.791 46.104 574.919 46.7653 575.175 47.384C575.431 47.992 575.783 48.5307 576.231 49C576.69 49.4587 577.223 49.816 577.831 50.072C578.45 50.328 579.111 50.456 579.815 50.456ZM579.975 48.728C579.335 48.728 578.765 48.5893 578.263 48.312C577.762 48.024 577.367 47.6293 577.079 47.128C576.791 46.6267 576.647 46.0507 576.647 45.4C576.647 44.7493 576.791 44.1733 577.079 43.672C577.367 43.1707 577.762 42.7813 578.263 42.504C578.765 42.216 579.335 42.072 579.975 42.072C580.519 42.072 581.01 42.184 581.447 42.408C581.895 42.6213 582.253 42.92 582.519 43.304L581.831 43.816C581.607 43.5067 581.335 43.2773 581.015 43.128C580.695 42.9787 580.343 42.904 579.959 42.904C579.501 42.904 579.09 43.0107 578.727 43.224C578.375 43.4267 578.093 43.7147 577.879 44.088C577.666 44.4613 577.559 44.8987 577.559 45.4C577.559 45.9013 577.666 46.3387 577.879 46.712C578.093 47.0853 578.375 47.3787 578.727 47.592C579.09 47.7947 579.501 47.896 579.959 47.896C580.343 47.896 580.695 47.8213 581.015 47.672C581.335 47.5227 581.607 47.2933 581.831 46.984L582.519 47.48C582.253 47.8747 581.895 48.184 581.447 48.408C581.01 48.6213 580.519 48.728 579.975 48.728ZM586.772 51V50.184L591.428 45.624C591.855 45.208 592.175 44.8453 592.388 44.536C592.602 44.216 592.746 43.9173 592.82 43.64C592.895 43.3627 592.932 43.1013 592.932 42.856C592.932 42.2053 592.708 41.6933 592.26 41.32C591.823 40.9467 591.172 40.76 590.308 40.76C589.647 40.76 589.06 40.8613 588.548 41.064C588.047 41.2667 587.615 41.5813 587.252 42.008L586.436 41.304C586.874 40.792 587.434 40.3973 588.116 40.12C588.799 39.8427 589.562 39.704 590.404 39.704C591.162 39.704 591.818 39.8267 592.372 40.072C592.927 40.3067 593.354 40.6533 593.652 41.112C593.962 41.5707 594.116 42.1093 594.116 42.728C594.116 43.0907 594.063 43.448 593.956 43.8C593.86 44.152 593.679 44.5253 593.412 44.92C593.156 45.304 592.778 45.7413 592.276 46.232L588.004 50.424L587.684 49.976H594.628V51H586.772ZM600.507 51.096C599.643 51.096 598.875 50.872 598.203 50.424C597.531 49.9653 597.003 49.3147 596.619 48.472C596.235 47.6187 596.043 46.5947 596.043 45.4C596.043 44.2053 596.235 43.1867 596.619 42.344C597.003 41.4907 597.531 40.84 598.203 40.392C598.875 39.9333 599.643 39.704 600.507 39.704C601.371 39.704 602.139 39.9333 602.811 40.392C603.483 40.84 604.011 41.4907 604.395 42.344C604.79 43.1867 604.987 44.2053 604.987 45.4C604.987 46.5947 604.79 47.6187 604.395 48.472C604.011 49.3147 603.483 49.9653 602.811 50.424C602.139 50.872 601.371 51.096 600.507 51.096ZM600.507 50.04C601.168 50.04 601.744 49.864 602.235 49.512C602.726 49.1493 603.11 48.6267 603.387 47.944C603.664 47.2507 603.803 46.4027 603.803 45.4C603.803 44.3973 603.664 43.5547 603.387 42.872C603.11 42.1787 602.726 41.656 602.235 41.304C601.744 40.9413 601.168 40.76 600.507 40.76C599.867 40.76 599.296 40.9413 598.795 41.304C598.294 41.656 597.904 42.1787 597.627 42.872C597.35 43.5547 597.211 44.3973 597.211 45.4C597.211 46.4027 597.35 47.2507 597.627 47.944C597.904 48.6267 598.294 49.1493 598.795 49.512C599.296 49.864 599.867 50.04 600.507 50.04ZM606.429 51V50.184L611.085 45.624C611.511 45.208 611.831 44.8453 612.045 44.536C612.258 44.216 612.402 43.9173 612.477 43.64C612.551 43.3627 612.589 43.1013 612.589 42.856C612.589 42.2053 612.365 41.6933 611.917 41.32C611.479 40.9467 610.829 40.76 609.965 40.76C609.303 40.76 608.717 40.8613 608.205 41.064C607.703 41.2667 607.271 41.5813 606.909 42.008L606.093 41.304C606.53 40.792 607.09 40.3973 607.773 40.12C608.455 39.8427 609.218 39.704 610.061 39.704C610.818 39.704 611.474 39.8267 612.029 40.072C612.583 40.3067 613.01 40.6533 613.309 41.112C613.618 41.5707 613.773 42.1093 613.773 42.728C613.773 43.0907 613.719 43.448 613.613 43.8C613.517 44.152 613.335 44.5253 613.069 44.92C612.813 45.304 612.434 45.7413 611.933 46.232L607.661 50.424L607.341 49.976H614.285V51H606.429ZM619.074 51.096C618.264 51.096 617.496 50.968 616.77 50.712C616.056 50.4453 615.48 50.0933 615.042 49.656L615.602 48.744C615.965 49.1173 616.45 49.4267 617.058 49.672C617.677 49.9173 618.349 50.04 619.074 50.04C620.002 50.04 620.712 49.8373 621.202 49.432C621.704 49.0267 621.954 48.4827 621.954 47.8C621.954 47.1173 621.709 46.5733 621.218 46.168C620.738 45.7627 619.976 45.56 618.93 45.56H618.13V44.712L621.586 40.376L621.746 40.824H615.506V39.8H622.706V40.616L619.25 44.952L618.69 44.584H619.122C620.466 44.584 621.469 44.8827 622.13 45.48C622.802 46.0773 623.138 46.8453 623.138 47.784C623.138 48.4133 622.989 48.9787 622.69 49.48C622.392 49.9813 621.938 50.376 621.33 50.664C620.733 50.952 619.981 51.096 619.074 51.096ZM630.997 44.808H636.917V45.816H630.997V44.808ZM631.125 49.976H637.861V51H629.941V39.8H637.621V40.824H631.125V49.976ZM640.404 51V39.128H641.54V51H640.404ZM648.269 51.08C647.395 51.08 646.627 50.8987 645.965 50.536C645.304 50.1627 644.787 49.656 644.413 49.016C644.04 48.3653 643.853 47.624 643.853 46.792C643.853 45.96 644.029 45.224 644.381 44.584C644.744 43.944 645.235 43.4427 645.853 43.08C646.483 42.7067 647.187 42.52 647.965 42.52C648.755 42.52 649.453 42.7013 650.061 43.064C650.68 43.416 651.165 43.9173 651.517 44.568C651.869 45.208 652.045 45.9493 652.045 46.792C652.045 46.8453 652.04 46.904 652.029 46.968C652.029 47.0213 652.029 47.08 652.029 47.144H644.717V46.296H651.421L650.973 46.632C650.973 46.024 650.84 45.4853 650.573 45.016C650.317 44.536 649.965 44.1627 649.517 43.896C649.069 43.6293 648.552 43.496 647.965 43.496C647.389 43.496 646.872 43.6293 646.413 43.896C645.955 44.1627 645.597 44.536 645.341 45.016C645.085 45.496 644.957 46.0453 644.957 46.664V46.84C644.957 47.48 645.096 48.0453 645.373 48.536C645.661 49.016 646.056 49.3947 646.557 49.672C647.069 49.9387 647.651 50.072 648.301 50.072C648.813 50.072 649.288 49.9813 649.725 49.8C650.173 49.6187 650.557 49.3413 650.877 48.968L651.517 49.704C651.144 50.152 650.675 50.4933 650.109 50.728C649.555 50.9627 648.941 51.08 648.269 51.08ZM657.845 51.08C657.013 51.08 656.267 50.8987 655.605 50.536C654.955 50.1627 654.443 49.656 654.069 49.016C653.696 48.3653 653.509 47.624 653.509 46.792C653.509 45.9493 653.696 45.208 654.069 44.568C654.443 43.928 654.955 43.4267 655.605 43.064C656.267 42.7013 657.013 42.52 657.845 42.52C658.56 42.52 659.205 42.6587 659.781 42.936C660.357 43.2133 660.811 43.6293 661.141 44.184L660.293 44.76C660.005 44.3333 659.648 44.0187 659.221 43.816C658.795 43.6133 658.331 43.512 657.829 43.512C657.232 43.512 656.693 43.6507 656.213 43.928C655.733 44.1947 655.355 44.5733 655.077 45.064C654.8 45.5547 654.661 46.1307 654.661 46.792C654.661 47.4533 654.8 48.0293 655.077 48.52C655.355 49.0107 655.733 49.3947 656.213 49.672C656.693 49.9387 657.232 50.072 657.829 50.072C658.331 50.072 658.795 49.9707 659.221 49.768C659.648 49.5653 660.005 49.256 660.293 48.84L661.141 49.416C660.811 49.96 660.357 50.376 659.781 50.664C659.205 50.9413 658.56 51.08 657.845 51.08ZM666.123 51.08C665.333 51.08 664.725 50.8667 664.299 50.44C663.872 50.0133 663.659 49.4107 663.659 48.632V40.744H664.795V48.568C664.795 49.0587 664.917 49.4373 665.163 49.704C665.419 49.9707 665.781 50.104 666.251 50.104C666.752 50.104 667.168 49.96 667.499 49.672L667.899 50.488C667.675 50.6907 667.403 50.84 667.083 50.936C666.773 51.032 666.453 51.08 666.123 51.08ZM662.155 43.544V42.6H667.355V43.544H662.155ZM669.967 51V42.6H671.055V44.888L670.943 44.488C671.177 43.848 671.572 43.3627 672.127 43.032C672.681 42.6907 673.369 42.52 674.191 42.52V43.624C674.148 43.624 674.105 43.624 674.063 43.624C674.02 43.6133 673.977 43.608 673.935 43.608C673.049 43.608 672.356 43.88 671.855 44.424C671.353 44.9573 671.103 45.72 671.103 46.712V51H669.967ZM679.61 51.08C678.799 51.08 678.068 50.8987 677.418 50.536C676.778 50.1627 676.271 49.656 675.898 49.016C675.524 48.3653 675.338 47.624 675.338 46.792C675.338 45.9493 675.524 45.208 675.898 44.568C676.271 43.928 676.778 43.4267 677.418 43.064C678.058 42.7013 678.788 42.52 679.61 42.52C680.442 42.52 681.178 42.7013 681.818 43.064C682.468 43.4267 682.975 43.928 683.338 44.568C683.711 45.208 683.898 45.9493 683.898 46.792C683.898 47.624 683.711 48.3653 683.338 49.016C682.975 49.656 682.468 50.1627 681.818 50.536C681.167 50.8987 680.431 51.08 679.61 51.08ZM679.61 50.072C680.218 50.072 680.756 49.9387 681.226 49.672C681.695 49.3947 682.063 49.0107 682.33 48.52C682.607 48.0187 682.746 47.4427 682.746 46.792C682.746 46.1307 682.607 45.5547 682.33 45.064C682.063 44.5733 681.695 44.1947 681.226 43.928C680.756 43.6507 680.223 43.512 679.626 43.512C679.028 43.512 678.495 43.6507 678.026 43.928C677.556 44.1947 677.183 44.5733 676.906 45.064C676.628 45.5547 676.49 46.1307 676.49 46.792C676.49 47.4427 676.628 48.0187 676.906 48.52C677.183 49.0107 677.556 49.3947 678.026 49.672C678.495 49.9387 679.023 50.072 679.61 50.072ZM688.852 51L693.972 39.8H695.14L700.26 51H699.012L694.308 40.488H694.788L690.084 51H688.852ZM690.868 48.008L691.22 47.048H697.732L698.084 48.008H690.868ZM701.873 51V39.128H703.009V51H701.873ZM706.17 51V39.128H707.306V51H706.17ZM714.894 51V39.8H719.086C720.036 39.8 720.852 39.9547 721.534 40.264C722.217 40.5627 722.74 41 723.102 41.576C723.476 42.1413 723.662 42.8293 723.662 43.64C723.662 44.4293 723.476 45.112 723.102 45.688C722.74 46.2533 722.217 46.6907 721.534 47C720.852 47.2987 720.036 47.448 719.086 47.448H715.55L716.078 46.904V51H714.894ZM722.542 51L719.662 46.936H720.942L723.838 51H722.542ZM716.078 47L715.55 46.44H719.054C720.174 46.44 721.022 46.1947 721.598 45.704C722.185 45.2133 722.478 44.5253 722.478 43.64C722.478 42.744 722.185 42.0507 721.598 41.56C721.022 41.0693 720.174 40.824 719.054 40.824H715.55L716.078 40.264V47ZM726.217 51V42.6H727.353V51H726.217ZM726.793 40.744C726.558 40.744 726.361 40.664 726.201 40.504C726.041 40.344 725.961 40.152 725.961 39.928C725.961 39.704 726.041 39.5173 726.201 39.368C726.361 39.208 726.558 39.128 726.793 39.128C727.027 39.128 727.225 39.2027 727.385 39.352C727.545 39.5013 727.625 39.688 727.625 39.912C727.625 40.1467 727.545 40.344 727.385 40.504C727.235 40.664 727.038 40.744 726.793 40.744ZM734.098 54.184C733.33 54.184 732.594 54.072 731.89 53.848C731.186 53.624 730.615 53.304 730.178 52.888L730.754 52.024C731.148 52.376 731.634 52.6533 732.21 52.856C732.796 53.0693 733.415 53.176 734.066 53.176C735.132 53.176 735.916 52.9253 736.418 52.424C736.919 51.9333 737.17 51.1653 737.17 50.12V48.024L737.33 46.584L737.218 45.144V42.6H738.306V49.976C738.306 51.4267 737.948 52.488 737.234 53.16C736.53 53.8427 735.484 54.184 734.098 54.184ZM733.89 50.68C733.09 50.68 732.37 50.5093 731.73 50.168C731.09 49.816 730.583 49.3307 730.21 48.712C729.847 48.0933 729.666 47.384 729.666 46.584C729.666 45.784 729.847 45.08 730.21 44.472C730.583 43.8533 731.09 43.3733 731.73 43.032C732.37 42.6907 733.09 42.52 733.89 42.52C734.636 42.52 735.308 42.6747 735.906 42.984C736.503 43.2933 736.978 43.752 737.33 44.36C737.682 44.968 737.858 45.7093 737.858 46.584C737.858 47.4587 737.682 48.2 737.33 48.808C736.978 49.416 736.503 49.88 735.906 50.2C735.308 50.52 734.636 50.68 733.89 50.68ZM734.002 49.672C734.62 49.672 735.17 49.544 735.65 49.288C736.13 49.0213 736.508 48.6587 736.786 48.2C737.063 47.7307 737.202 47.192 737.202 46.584C737.202 45.976 737.063 45.4427 736.786 44.984C736.508 44.5253 736.13 44.168 735.65 43.912C735.17 43.6453 734.62 43.512 734.002 43.512C733.394 43.512 732.844 43.6453 732.354 43.912C731.874 44.168 731.495 44.5253 731.218 44.984C730.951 45.4427 730.818 45.976 730.818 46.584C730.818 47.192 730.951 47.7307 731.218 48.2C731.495 48.6587 731.874 49.0213 732.354 49.288C732.844 49.544 733.394 49.672 734.002 49.672ZM745.755 42.52C746.437 42.52 747.035 42.6533 747.547 42.92C748.069 43.176 748.475 43.5707 748.763 44.104C749.061 44.6373 749.211 45.3093 749.211 46.12V51H748.075V46.232C748.075 45.3467 747.851 44.68 747.403 44.232C746.965 43.7733 746.347 43.544 745.547 43.544C744.949 43.544 744.427 43.6667 743.979 43.912C743.541 44.1467 743.2 44.4933 742.955 44.952C742.72 45.4 742.603 45.944 742.603 46.584V51H741.467V39.128H742.603V44.904L742.379 44.472C742.645 43.864 743.072 43.3893 743.659 43.048C744.245 42.696 744.944 42.52 745.755 42.52ZM754.935 51.08C754.146 51.08 753.538 50.8667 753.111 50.44C752.685 50.0133 752.471 49.4107 752.471 48.632V40.744H753.607V48.568C753.607 49.0587 753.73 49.4373 753.975 49.704C754.231 49.9707 754.594 50.104 755.063 50.104C755.565 50.104 755.981 49.96 756.311 49.672L756.711 50.488C756.487 50.6907 756.215 50.84 755.895 50.936C755.586 51.032 755.266 51.08 754.935 51.08ZM750.967 43.544V42.6H756.167V43.544H750.967ZM761.035 51.08C760.342 51.08 759.686 50.984 759.067 50.792C758.449 50.5893 757.963 50.3387 757.611 50.04L758.123 49.144C758.465 49.4 758.902 49.624 759.435 49.816C759.969 49.9973 760.529 50.088 761.115 50.088C761.915 50.088 762.491 49.9653 762.843 49.72C763.195 49.464 763.371 49.128 763.371 48.712C763.371 48.4027 763.27 48.1627 763.067 47.992C762.875 47.8107 762.619 47.6773 762.299 47.592C761.979 47.496 761.622 47.416 761.227 47.352C760.833 47.288 760.438 47.2133 760.043 47.128C759.659 47.0427 759.307 46.92 758.987 46.76C758.667 46.5893 758.406 46.36 758.203 46.072C758.011 45.784 757.915 45.4 757.915 44.92C757.915 44.4613 758.043 44.0507 758.299 43.688C758.555 43.3253 758.929 43.0427 759.419 42.84C759.921 42.6267 760.529 42.52 761.243 42.52C761.787 42.52 762.331 42.5947 762.875 42.744C763.419 42.8827 763.867 43.0693 764.219 43.304L763.723 44.216C763.35 43.96 762.95 43.7787 762.523 43.672C762.097 43.5547 761.67 43.496 761.243 43.496C760.486 43.496 759.926 43.6293 759.563 43.896C759.211 44.152 759.035 44.4827 759.035 44.888C759.035 45.208 759.131 45.4587 759.323 45.64C759.526 45.8213 759.787 45.9653 760.107 46.072C760.438 46.168 760.795 46.248 761.179 46.312C761.574 46.376 761.963 46.456 762.347 46.552C762.742 46.6373 763.099 46.76 763.419 46.92C763.75 47.0693 764.011 47.288 764.203 47.576C764.406 47.8533 764.507 48.2213 764.507 48.68C764.507 49.1707 764.369 49.5973 764.091 49.96C763.825 50.312 763.43 50.5893 762.907 50.792C762.395 50.984 761.771 51.08 761.035 51.08ZM776.043 51V49.144L775.995 48.84V45.736C775.995 45.0213 775.793 44.472 775.387 44.088C774.993 43.704 774.401 43.512 773.611 43.512C773.067 43.512 772.55 43.6027 772.059 43.784C771.569 43.9653 771.153 44.2053 770.811 44.504L770.299 43.656C770.726 43.2933 771.238 43.016 771.835 42.824C772.433 42.6213 773.062 42.52 773.723 42.52C774.811 42.52 775.649 42.792 776.235 43.336C776.833 43.8693 777.131 44.6853 777.131 45.784V51H776.043ZM773.147 51.08C772.518 51.08 771.969 50.9787 771.499 50.776C771.041 50.5627 770.689 50.2747 770.443 49.912C770.198 49.5387 770.075 49.112 770.075 48.632C770.075 48.1947 770.177 47.8 770.379 47.448C770.593 47.0853 770.934 46.7973 771.403 46.584C771.883 46.36 772.523 46.248 773.323 46.248H776.219V47.096H773.355C772.545 47.096 771.979 47.24 771.659 47.528C771.35 47.816 771.195 48.1733 771.195 48.6C771.195 49.08 771.382 49.464 771.755 49.752C772.129 50.04 772.651 50.184 773.323 50.184C773.963 50.184 774.513 50.04 774.971 49.752C775.441 49.4533 775.782 49.0267 775.995 48.472L776.251 49.256C776.038 49.8107 775.665 50.2533 775.131 50.584C774.609 50.9147 773.947 51.08 773.147 51.08ZM780.217 51V42.6H781.305V44.888L781.193 44.488C781.427 43.848 781.822 43.3627 782.377 43.032C782.931 42.6907 783.619 42.52 784.441 42.52V43.624C784.398 43.624 784.355 43.624 784.313 43.624C784.27 43.6133 784.227 43.608 784.185 43.608C783.299 43.608 782.606 43.88 782.105 44.424C781.603 44.9573 781.353 45.72 781.353 46.712V51H780.217ZM790.004 51.08C789.129 51.08 788.361 50.8987 787.7 50.536C787.038 50.1627 786.521 49.656 786.148 49.016C785.774 48.3653 785.588 47.624 785.588 46.792C785.588 45.96 785.764 45.224 786.116 44.584C786.478 43.944 786.969 43.4427 787.588 43.08C788.217 42.7067 788.921 42.52 789.7 42.52C790.489 42.52 791.188 42.7013 791.796 43.064C792.414 43.416 792.9 43.9173 793.252 44.568C793.604 45.208 793.78 45.9493 793.78 46.792C793.78 46.8453 793.774 46.904 793.764 46.968C793.764 47.0213 793.764 47.08 793.764 47.144H786.452V46.296H793.156L792.708 46.632C792.708 46.024 792.574 45.4853 792.308 45.016C792.052 44.536 791.7 44.1627 791.252 43.896C790.804 43.6293 790.286 43.496 789.7 43.496C789.124 43.496 788.606 43.6293 788.148 43.896C787.689 44.1627 787.332 44.536 787.076 45.016C786.82 45.496 786.692 46.0453 786.692 46.664V46.84C786.692 47.48 786.83 48.0453 787.108 48.536C787.396 49.016 787.79 49.3947 788.292 49.672C788.804 49.9387 789.385 50.072 790.036 50.072C790.548 50.072 791.022 49.9813 791.46 49.8C791.908 49.6187 792.292 49.3413 792.612 48.968L793.252 49.704C792.878 50.152 792.409 50.4933 791.844 50.728C791.289 50.9627 790.676 51.08 790.004 51.08ZM800.279 51V42.6H801.367V44.888L801.255 44.488C801.49 43.848 801.885 43.3627 802.439 43.032C802.994 42.6907 803.682 42.52 804.503 42.52V43.624C804.461 43.624 804.418 43.624 804.375 43.624C804.333 43.6133 804.29 43.608 804.247 43.608C803.362 43.608 802.669 43.88 802.167 44.424C801.666 44.9573 801.415 45.72 801.415 46.712V51H800.279ZM810.066 51.08C809.191 51.08 808.423 50.8987 807.762 50.536C807.101 50.1627 806.583 49.656 806.21 49.016C805.837 48.3653 805.65 47.624 805.65 46.792C805.65 45.96 805.826 45.224 806.178 44.584C806.541 43.944 807.031 43.4427 807.65 43.08C808.279 42.7067 808.983 42.52 809.762 42.52C810.551 42.52 811.25 42.7013 811.858 43.064C812.477 43.416 812.962 43.9173 813.314 44.568C813.666 45.208 813.842 45.9493 813.842 46.792C813.842 46.8453 813.837 46.904 813.826 46.968C813.826 47.0213 813.826 47.08 813.826 47.144H806.514V46.296H813.218L812.77 46.632C812.77 46.024 812.637 45.4853 812.37 45.016C812.114 44.536 811.762 44.1627 811.314 43.896C810.866 43.6293 810.349 43.496 809.762 43.496C809.186 43.496 808.669 43.6293 808.21 43.896C807.751 44.1627 807.394 44.536 807.138 45.016C806.882 45.496 806.754 46.0453 806.754 46.664V46.84C806.754 47.48 806.893 48.0453 807.17 48.536C807.458 49.016 807.853 49.3947 808.354 49.672C808.866 49.9387 809.447 50.072 810.098 50.072C810.61 50.072 811.085 49.9813 811.522 49.8C811.97 49.6187 812.354 49.3413 812.674 48.968L813.314 49.704C812.941 50.152 812.471 50.4933 811.906 50.728C811.351 50.9627 810.738 51.08 810.066 51.08ZM818.41 51.08C817.717 51.08 817.061 50.984 816.442 50.792C815.824 50.5893 815.338 50.3387 814.986 50.04L815.498 49.144C815.84 49.4 816.277 49.624 816.81 49.816C817.344 49.9973 817.904 50.088 818.49 50.088C819.29 50.088 819.866 49.9653 820.218 49.72C820.57 49.464 820.746 49.128 820.746 48.712C820.746 48.4027 820.645 48.1627 820.442 47.992C820.25 47.8107 819.994 47.6773 819.674 47.592C819.354 47.496 818.997 47.416 818.602 47.352C818.208 47.288 817.813 47.2133 817.418 47.128C817.034 47.0427 816.682 46.92 816.362 46.76C816.042 46.5893 815.781 46.36 815.578 46.072C815.386 45.784 815.29 45.4 815.29 44.92C815.29 44.4613 815.418 44.0507 815.674 43.688C815.93 43.3253 816.304 43.0427 816.794 42.84C817.296 42.6267 817.904 42.52 818.618 42.52C819.162 42.52 819.706 42.5947 820.25 42.744C820.794 42.8827 821.242 43.0693 821.594 43.304L821.098 44.216C820.725 43.96 820.325 43.7787 819.898 43.672C819.472 43.5547 819.045 43.496 818.618 43.496C817.861 43.496 817.301 43.6293 816.938 43.896C816.586 44.152 816.41 44.4827 816.41 44.888C816.41 45.208 816.506 45.4587 816.698 45.64C816.901 45.8213 817.162 45.9653 817.482 46.072C817.813 46.168 818.17 46.248 818.554 46.312C818.949 46.376 819.338 46.456 819.722 46.552C820.117 46.6373 820.474 46.76 820.794 46.92C821.125 47.0693 821.386 47.288 821.578 47.576C821.781 47.8533 821.882 48.2213 821.882 48.68C821.882 49.1707 821.744 49.5973 821.466 49.96C821.2 50.312 820.805 50.5893 820.282 50.792C819.77 50.984 819.146 51.08 818.41 51.08ZM827.535 51.08C826.66 51.08 825.892 50.8987 825.231 50.536C824.569 50.1627 824.052 49.656 823.679 49.016C823.305 48.3653 823.119 47.624 823.119 46.792C823.119 45.96 823.295 45.224 823.647 44.584C824.009 43.944 824.5 43.4427 825.119 43.08C825.748 42.7067 826.452 42.52 827.231 42.52C828.02 42.52 828.719 42.7013 829.327 43.064C829.945 43.416 830.431 43.9173 830.783 44.568C831.135 45.208 831.311 45.9493 831.311 46.792C831.311 46.8453 831.305 46.904 831.295 46.968C831.295 47.0213 831.295 47.08 831.295 47.144H823.983V46.296H830.687L830.239 46.632C830.239 46.024 830.105 45.4853 829.839 45.016C829.583 44.536 829.231 44.1627 828.783 43.896C828.335 43.6293 827.817 43.496 827.231 43.496C826.655 43.496 826.137 43.6293 825.679 43.896C825.22 44.1627 824.863 44.536 824.607 45.016C824.351 45.496 824.223 46.0453 824.223 46.664V46.84C824.223 47.48 824.361 48.0453 824.639 48.536C824.927 49.016 825.321 49.3947 825.823 49.672C826.335 49.9387 826.916 50.072 827.567 50.072C828.079 50.072 828.553 49.9813 828.991 49.8C829.439 49.6187 829.823 49.3413 830.143 48.968L830.783 49.704C830.409 50.152 829.94 50.4933 829.375 50.728C828.82 50.9627 828.207 51.08 827.535 51.08ZM833.623 51V42.6H834.711V44.888L834.599 44.488C834.834 43.848 835.228 43.3627 835.783 43.032C836.338 42.6907 837.026 42.52 837.847 42.52V43.624C837.804 43.624 837.762 43.624 837.719 43.624C837.676 43.6133 837.634 43.608 837.591 43.608C836.706 43.608 836.012 43.88 835.511 44.424C835.01 44.9573 834.759 45.72 834.759 46.712V51H833.623ZM842.439 51L838.711 42.6H839.895L843.319 50.392H842.759L846.231 42.6H847.351L843.607 51H842.439ZM852.285 51.08C851.41 51.08 850.642 50.8987 849.981 50.536C849.319 50.1627 848.802 49.656 848.429 49.016C848.055 48.3653 847.869 47.624 847.869 46.792C847.869 45.96 848.045 45.224 848.397 44.584C848.759 43.944 849.25 43.4427 849.869 43.08C850.498 42.7067 851.202 42.52 851.981 42.52C852.77 42.52 853.469 42.7013 854.077 43.064C854.695 43.416 855.181 43.9173 855.533 44.568C855.885 45.208 856.061 45.9493 856.061 46.792C856.061 46.8453 856.055 46.904 856.045 46.968C856.045 47.0213 856.045 47.08 856.045 47.144H848.733V46.296H855.437L854.989 46.632C854.989 46.024 854.855 45.4853 854.589 45.016C854.333 44.536 853.981 44.1627 853.533 43.896C853.085 43.6293 852.567 43.496 851.981 43.496C851.405 43.496 850.887 43.6293 850.429 43.896C849.97 44.1627 849.613 44.536 849.357 45.016C849.101 45.496 848.973 46.0453 848.973 46.664V46.84C848.973 47.48 849.111 48.0453 849.389 48.536C849.677 49.016 850.071 49.3947 850.573 49.672C851.085 49.9387 851.666 50.072 852.317 50.072C852.829 50.072 853.303 49.9813 853.741 49.8C854.189 49.6187 854.573 49.3413 854.893 48.968L855.533 49.704C855.159 50.152 854.69 50.4933 854.125 50.728C853.57 50.9627 852.957 51.08 852.285 51.08ZM861.717 51.08C860.917 51.08 860.197 50.8987 859.557 50.536C858.928 50.1733 858.432 49.672 858.069 49.032C857.706 48.3813 857.525 47.6347 857.525 46.792C857.525 45.9387 857.706 45.192 858.069 44.552C858.432 43.912 858.928 43.416 859.557 43.064C860.197 42.7013 860.917 42.52 861.717 42.52C862.453 42.52 863.109 42.6853 863.685 43.016C864.272 43.3467 864.736 43.832 865.077 44.472C865.429 45.1013 865.605 45.8747 865.605 46.792C865.605 47.6987 865.434 48.472 865.093 49.112C864.752 49.752 864.288 50.2427 863.701 50.584C863.125 50.9147 862.464 51.08 861.717 51.08ZM861.797 50.072C862.394 50.072 862.928 49.9387 863.397 49.672C863.877 49.3947 864.25 49.0107 864.517 48.52C864.794 48.0187 864.933 47.4427 864.933 46.792C864.933 46.1307 864.794 45.5547 864.517 45.064C864.25 44.5733 863.877 44.1947 863.397 43.928C862.928 43.6507 862.394 43.512 861.797 43.512C861.21 43.512 860.682 43.6507 860.213 43.928C859.744 44.1947 859.37 44.5733 859.093 45.064C858.816 45.5547 858.677 46.1307 858.677 46.792C858.677 47.4427 858.816 48.0187 859.093 48.52C859.37 49.0107 859.744 49.3947 860.213 49.672C860.682 49.9387 861.21 50.072 861.797 50.072ZM864.965 51V48.472L865.077 46.776L864.917 45.08V39.128H866.053V51H864.965Z" fill="white"/>
<path d="M1199 30H1196C1193.24 30 1191 32.2386 1191 35V37H1187V41H1191V48H1195V41H1199V37H1195V35C1195 34.4477 1195.45 34 1196 34H1199V30Z" fill="white"/>
<path fill-rule="evenodd" clip-rule="evenodd" d="M1232 29C1229.24 29 1227 31.2386 1227 34V44C1227 46.7614 1229.24 49 1232 49H1242C1244.76 49 1247 46.7614 1247 44V34C1247 31.2386 1244.76 29 1242 29H1232ZM1243 34C1243.55 34 1244 33.5523 1244 33C1244 32.4477 1243.55 32 1243 32C1242.45 32 1242 32.4477 1242 33C1242 33.5523 1242.45 34 1243 34ZM1242 39C1242 41.7614 1239.76 44 1237 44C1234.24 44 1232 41.7614 1232 39C1232 36.2386 1234.24 34 1237 34C1239.76 34 1242 36.2386 1242 39ZM1237 42C1238.66 42 1240 40.6569 1240 39C1240 37.3431 1238.66 36 1237 36C1235.34 36 1234 37.3431 1234 39C1234 40.6569 1235.34 42 1237 42Z" fill="white"/>
<path d="M1284.29 31C1282.18 31 1280.48 32.7909 1280.48 35C1280.48 35.3338 1280.52 35.6581 1280.59 35.9681C1278.57 35.9681 1275.52 35.5591 1272.97 33.0096C1272.64 32.6706 1272.01 32.8973 1272.04 33.3757C1272.41 41.0627 1275.7 43.3049 1277.4 43.4444C1276.31 44.5257 1274.72 45.3791 1273.11 45.7622C1272.69 45.8633 1272.59 46.3256 1273 46.4599C1274.15 46.8323 1275.79 46.9758 1276.67 47C1282.91 47 1287.98 41.7471 1288.09 35.2223C1288.91 34.6894 1289.44 33.5325 1289.73 32.7129C1289.8 32.5133 1289.48 32.2807 1289.28 32.3623C1288.67 32.6171 1287.89 32.6775 1287.23 32.4618C1286.53 31.5693 1285.47 31 1284.29 31Z" fill="white"/>
<rect x="150" y="12" width="1140" height="1" fill="#A5A9AC" fill-opacity="0.2"/>
</svg>
