<svg width="13" height="13" viewBox="0 0 13 13" fill="none" xmlns="http://www.w3.org/2000/svg">
<path d="M6.64269 12.5891C5.44598 12.5891 4.38147 12.336 3.44915 11.8297C2.53076 11.3234 1.80022 10.6343 1.25753 9.76242C0.728753 8.87644 0.464355 7.87091 0.464355 6.74586C0.464355 5.60674 0.728753 4.60122 1.25753 3.7293C1.80022 2.84331 2.53076 2.15421 3.44915 1.662C4.38147 1.15573 5.44598 0.902588 6.64269 0.902588C7.82547 0.902588 8.88303 1.15573 9.81534 1.662C10.7477 2.15421 11.4782 2.83628 12.007 3.7082C12.5358 4.58012 12.8001 5.59267 12.8001 6.74586C12.8001 7.87091 12.5358 8.87644 12.007 9.76242C11.4782 10.6343 10.7477 11.3234 9.81534 11.8297C8.88303 12.336 7.82547 12.5891 6.64269 12.5891ZM6.64269 9.88899C7.18538 9.88899 7.67241 9.76242 8.10378 9.50928C8.53515 9.25614 8.87606 8.89753 9.12654 8.43344C9.37701 7.95529 9.50225 7.39277 9.50225 6.74586C9.50225 6.08489 9.37701 5.52236 9.12654 5.05827C8.87606 4.59418 8.53515 4.23557 8.10378 3.98243C7.67241 3.7293 7.18538 3.60273 6.64269 3.60273C6.1 3.60273 5.61296 3.7293 5.18159 3.98243C4.75022 4.23557 4.40235 4.59418 4.13796 5.05827C3.88749 5.52236 3.76225 6.08489 3.76225 6.74586C3.76225 7.39277 3.88749 7.95529 4.13796 8.43344C4.40235 8.89753 4.75022 9.25614 5.18159 9.50928C5.61296 9.76242 6.1 9.88899 6.64269 9.88899Z" fill="white"/>
</svg>
