<svg width="77" height="38" viewBox="0 0 77 38" fill="none" xmlns="http://www.w3.org/2000/svg">
<g filter="url(#filter0_d_3555_31232)">
<rect x="4" width="69" height="30" rx="4" fill="#3CD139" fill-opacity="0.1" shape-rendering="crispEdges"/>
<path d="M15.368 19V10.6H16.256V19H15.368ZM22.0251 12.64C22.5371 12.64 22.9851 12.74 23.3691 12.94C23.7611 13.132 24.0651 13.428 24.2811 13.828C24.5051 14.228 24.6171 14.732 24.6171 15.34V19H23.7651V15.424C23.7651 14.76 23.5971 14.26 23.2611 13.924C22.9331 13.58 22.4691 13.408 21.8691 13.408C21.4211 13.408 21.0291 13.5 20.6931 13.684C20.3651 13.86 20.1091 14.12 19.9251 14.464C19.7491 14.8 19.6611 15.208 19.6611 15.688V19H18.8091V12.7H19.6251V14.428L19.4931 14.104C19.6931 13.648 20.0131 13.292 20.4531 13.036C20.8931 12.772 21.4171 12.64 22.0251 12.64ZM32.5551 19.072C31.9311 19.072 31.3311 18.972 30.7551 18.772C30.1871 18.564 29.7471 18.3 29.4351 17.98L29.7831 17.296C30.0791 17.584 30.4751 17.828 30.9711 18.028C31.4751 18.22 32.0031 18.316 32.5551 18.316C33.0831 18.316 33.5111 18.252 33.8391 18.124C34.1751 17.988 34.4191 17.808 34.5711 17.584C34.7311 17.36 34.8111 17.112 34.8111 16.84C34.8111 16.512 34.7151 16.248 34.5231 16.048C34.3391 15.848 34.0951 15.692 33.7911 15.58C33.4871 15.46 33.1511 15.356 32.7831 15.268C32.4151 15.18 32.0471 15.088 31.6791 14.992C31.3111 14.888 30.9711 14.752 30.6591 14.584C30.3551 14.416 30.1071 14.196 29.9151 13.924C29.7311 13.644 29.6391 13.28 29.6391 12.832C29.6391 12.416 29.7471 12.036 29.9631 11.692C30.1871 11.34 30.5271 11.06 30.9831 10.852C31.4391 10.636 32.0231 10.528 32.7351 10.528C33.2071 10.528 33.6751 10.596 34.1391 10.732C34.6031 10.86 35.0031 11.04 35.3391 11.272L35.0391 11.98C34.6791 11.74 34.2951 11.564 33.8871 11.452C33.4871 11.34 33.0991 11.284 32.7231 11.284C32.2191 11.284 31.8031 11.352 31.4751 11.488C31.1471 11.624 30.9031 11.808 30.7431 12.04C30.5911 12.264 30.5151 12.52 30.5151 12.808C30.5151 13.136 30.6071 13.4 30.7911 13.6C30.9831 13.8 31.2311 13.956 31.5351 14.068C31.8471 14.18 32.1871 14.28 32.5551 14.368C32.9231 14.456 33.2871 14.552 33.6471 14.656C34.0151 14.76 34.3511 14.896 34.6551 15.064C34.9671 15.224 35.2151 15.44 35.3991 15.712C35.5911 15.984 35.6871 16.34 35.6871 16.78C35.6871 17.188 35.5751 17.568 35.3511 17.92C35.1271 18.264 34.7831 18.544 34.3191 18.76C33.8631 18.968 33.2751 19.072 32.5551 19.072ZM39.4339 19.06C38.8419 19.06 38.3859 18.9 38.0659 18.58C37.7459 18.26 37.5859 17.808 37.5859 17.224V11.308H38.4379V17.176C38.4379 17.544 38.5299 17.828 38.7139 18.028C38.9059 18.228 39.1779 18.328 39.5299 18.328C39.9059 18.328 40.2179 18.22 40.4659 18.004L40.7659 18.616C40.5979 18.768 40.3939 18.88 40.1539 18.952C39.9219 19.024 39.6819 19.06 39.4339 19.06ZM36.4579 13.408V12.7H40.3579V13.408H36.4579ZM44.6623 19.06C44.0543 19.06 43.5063 18.924 43.0183 18.652C42.5383 18.372 42.1583 17.992 41.8783 17.512C41.5983 17.024 41.4583 16.468 41.4583 15.844C41.4583 15.212 41.5983 14.656 41.8783 14.176C42.1583 13.696 42.5383 13.32 43.0183 13.048C43.4983 12.776 44.0463 12.64 44.6623 12.64C45.2863 12.64 45.8383 12.776 46.3183 13.048C46.8063 13.32 47.1863 13.696 47.4583 14.176C47.7383 14.656 47.8783 15.212 47.8783 15.844C47.8783 16.468 47.7383 17.024 47.4583 17.512C47.1863 17.992 46.8063 18.372 46.3183 18.652C45.8303 18.924 45.2783 19.06 44.6623 19.06ZM44.6623 18.304C45.1183 18.304 45.5223 18.204 45.8743 18.004C46.2263 17.796 46.5023 17.508 46.7023 17.14C46.9103 16.764 47.0143 16.332 47.0143 15.844C47.0143 15.348 46.9103 14.916 46.7023 14.548C46.5023 14.18 46.2263 13.896 45.8743 13.696C45.5223 13.488 45.1223 13.384 44.6743 13.384C44.2263 13.384 43.8263 13.488 43.4743 13.696C43.1223 13.896 42.8423 14.18 42.6343 14.548C42.4263 14.916 42.3223 15.348 42.3223 15.844C42.3223 16.332 42.4263 16.764 42.6343 17.14C42.8423 17.508 43.1223 17.796 43.4743 18.004C43.8263 18.204 44.2223 18.304 44.6623 18.304ZM52.2337 19.06C51.6097 19.06 51.0497 18.924 50.5537 18.652C50.0657 18.372 49.6817 17.992 49.4017 17.512C49.1217 17.024 48.9817 16.468 48.9817 15.844C48.9817 15.212 49.1217 14.656 49.4017 14.176C49.6817 13.696 50.0657 13.32 50.5537 13.048C51.0497 12.776 51.6097 12.64 52.2337 12.64C52.7697 12.64 53.2537 12.744 53.6857 12.952C54.1177 13.16 54.4577 13.472 54.7057 13.888L54.0697 14.32C53.8537 14 53.5857 13.764 53.2657 13.612C52.9457 13.46 52.5977 13.384 52.2217 13.384C51.7737 13.384 51.3697 13.488 51.0097 13.696C50.6497 13.896 50.3657 14.18 50.1577 14.548C49.9497 14.916 49.8457 15.348 49.8457 15.844C49.8457 16.34 49.9497 16.772 50.1577 17.14C50.3657 17.508 50.6497 17.796 51.0097 18.004C51.3697 18.204 51.7737 18.304 52.2217 18.304C52.5977 18.304 52.9457 18.228 53.2657 18.076C53.5857 17.924 53.8537 17.692 54.0697 17.38L54.7057 17.812C54.4577 18.22 54.1177 18.532 53.6857 18.748C53.2537 18.956 52.7697 19.06 52.2337 19.06ZM56.9577 17.368L56.9817 16.276L60.9057 12.7H61.9497L59.1777 15.352L58.6977 15.76L56.9577 17.368ZM56.2857 19V10.096H57.1377V19H56.2857ZM61.1697 19L58.5417 15.724L59.0937 15.064L62.2137 19H61.1697Z" fill="#3CD139"/>
</g>
<defs>
<filter id="filter0_d_3555_31232" x="0" y="0" width="77" height="38" filterUnits="userSpaceOnUse" color-interpolation-filters="sRGB">
<feFlood flood-opacity="0" result="BackgroundImageFix"/>
<feColorMatrix in="SourceAlpha" type="matrix" values="0 0 0 0 0 0 0 0 0 0 0 0 0 0 0 0 0 0 127 0" result="hardAlpha"/>
<feOffset dy="4"/>
<feGaussianBlur stdDeviation="2"/>
<feComposite in2="hardAlpha" operator="out"/>
<feColorMatrix type="matrix" values="0 0 0 0 0 0 0 0 0 0 0 0 0 0 0 0 0 0 0.25 0"/>
<feBlend mode="normal" in2="BackgroundImageFix" result="effect1_dropShadow_3555_31232"/>
<feBlend mode="normal" in="SourceGraphic" in2="effect1_dropShadow_3555_31232" result="shape"/>
</filter>
</defs>
</svg>
