<svg width="380" height="24" viewBox="0 0 380 24" fill="none" xmlns="http://www.w3.org/2000/svg">
<rect y="11.5" width="132" height="1" fill="#A5A9AC" fill-opacity="0.2"/>
<path d="M146.066 17.084C145.328 17.084 144.642 16.9627 144.008 16.72C143.382 16.468 142.836 16.118 142.37 15.67C141.912 15.2127 141.553 14.6853 141.292 14.088C141.04 13.4813 140.914 12.8187 140.914 12.1C140.914 11.3813 141.04 10.7233 141.292 10.126C141.553 9.51933 141.912 8.992 142.37 8.544C142.836 8.08667 143.382 7.73667 144.008 7.494C144.633 7.242 145.319 7.116 146.066 7.116C146.803 7.116 147.484 7.242 148.11 7.494C148.735 7.73667 149.276 8.082 149.734 8.53C150.2 8.978 150.56 9.50533 150.812 10.112C151.073 10.7187 151.204 11.3813 151.204 12.1C151.204 12.8187 151.073 13.4813 150.812 14.088C150.56 14.6947 150.2 15.222 149.734 15.67C149.276 16.118 148.735 16.468 148.11 16.72C147.484 16.9627 146.803 17.084 146.066 17.084ZM146.066 16.16C146.654 16.16 147.195 16.062 147.69 15.866C148.194 15.6607 148.628 15.376 148.992 15.012C149.365 14.6387 149.654 14.2093 149.86 13.724C150.065 13.2293 150.168 12.688 150.168 12.1C150.168 11.512 150.065 10.9753 149.86 10.49C149.654 9.99533 149.365 9.566 148.992 9.202C148.628 8.82867 148.194 8.544 147.69 8.348C147.195 8.14267 146.654 8.04 146.066 8.04C145.478 8.04 144.932 8.14267 144.428 8.348C143.924 8.544 143.485 8.82867 143.112 9.202C142.748 9.566 142.458 9.99533 142.244 10.49C142.038 10.9753 141.936 11.512 141.936 12.1C141.936 12.6787 142.038 13.2153 142.244 13.71C142.458 14.2047 142.748 14.6387 143.112 15.012C143.485 15.376 143.924 15.6607 144.428 15.866C144.932 16.062 145.478 16.16 146.066 16.16ZM153.316 17V9.65H154.268V11.652L154.17 11.302C154.375 10.742 154.72 10.3173 155.206 10.028C155.691 9.72933 156.293 9.58 157.012 9.58V10.546C156.974 10.546 156.937 10.546 156.9 10.546C156.862 10.5367 156.825 10.532 156.788 10.532C156.013 10.532 155.406 10.77 154.968 11.246C154.529 11.7127 154.31 12.38 154.31 13.248V17H153.316ZM162.809 17V7.2H163.845V16.104H169.333V17H162.809ZM173.73 17.07C173.02 17.07 172.381 16.9113 171.812 16.594C171.252 16.2673 170.808 15.824 170.482 15.264C170.155 14.6947 169.992 14.046 169.992 13.318C169.992 12.5807 170.155 11.932 170.482 11.372C170.808 10.812 171.252 10.3733 171.812 10.056C172.372 9.73867 173.011 9.58 173.73 9.58C174.458 9.58 175.102 9.73867 175.662 10.056C176.231 10.3733 176.674 10.812 176.992 11.372C177.318 11.932 177.482 12.5807 177.482 13.318C177.482 14.046 177.318 14.6947 176.992 15.264C176.674 15.824 176.231 16.2673 175.662 16.594C175.092 16.9113 174.448 17.07 173.73 17.07ZM173.73 16.188C174.262 16.188 174.733 16.0713 175.144 15.838C175.554 15.5953 175.876 15.2593 176.11 14.83C176.352 14.3913 176.474 13.8873 176.474 13.318C176.474 12.7393 176.352 12.2353 176.11 11.806C175.876 11.3767 175.554 11.0453 175.144 10.812C174.733 10.5693 174.266 10.448 173.744 10.448C173.221 10.448 172.754 10.5693 172.344 10.812C171.933 11.0453 171.606 11.3767 171.364 11.806C171.121 12.2353 171 12.7393 171 13.318C171 13.8873 171.121 14.3913 171.364 14.83C171.606 15.2593 171.933 15.5953 172.344 15.838C172.754 16.0713 173.216 16.188 173.73 16.188ZM182.647 19.786C181.975 19.786 181.331 19.688 180.715 19.492C180.099 19.296 179.6 19.016 179.217 18.652L179.721 17.896C180.066 18.204 180.491 18.4467 180.995 18.624C181.508 18.8107 182.05 18.904 182.619 18.904C183.552 18.904 184.238 18.6847 184.677 18.246C185.116 17.8167 185.335 17.1447 185.335 16.23V14.396L185.475 13.136L185.377 11.876V9.65H186.329V16.104C186.329 17.3733 186.016 18.302 185.391 18.89C184.775 19.4873 183.86 19.786 182.647 19.786ZM182.465 16.72C181.765 16.72 181.135 16.5707 180.575 16.272C180.015 15.964 179.572 15.5393 179.245 14.998C178.928 14.4567 178.769 13.836 178.769 13.136C178.769 12.436 178.928 11.82 179.245 11.288C179.572 10.7467 180.015 10.3267 180.575 10.028C181.135 9.72933 181.765 9.58 182.465 9.58C183.118 9.58 183.706 9.71533 184.229 9.986C184.752 10.2567 185.167 10.658 185.475 11.19C185.783 11.722 185.937 12.3707 185.937 13.136C185.937 13.9013 185.783 14.55 185.475 15.082C185.167 15.614 184.752 16.02 184.229 16.3C183.706 16.58 183.118 16.72 182.465 16.72ZM182.563 15.838C183.104 15.838 183.585 15.726 184.005 15.502C184.425 15.2687 184.756 14.9513 184.999 14.55C185.242 14.1393 185.363 13.668 185.363 13.136C185.363 12.604 185.242 12.1373 184.999 11.736C184.756 11.3347 184.425 11.022 184.005 10.798C183.585 10.5647 183.104 10.448 182.563 10.448C182.031 10.448 181.55 10.5647 181.121 10.798C180.701 11.022 180.37 11.3347 180.127 11.736C179.894 12.1373 179.777 12.604 179.777 13.136C179.777 13.668 179.894 14.1393 180.127 14.55C180.37 14.9513 180.701 15.2687 181.121 15.502C181.55 15.726 182.031 15.838 182.563 15.838ZM189.095 17V9.65H190.089V17H189.095ZM189.599 8.026C189.394 8.026 189.221 7.956 189.081 7.816C188.941 7.676 188.871 7.508 188.871 7.312C188.871 7.116 188.941 6.95267 189.081 6.822C189.221 6.682 189.394 6.612 189.599 6.612C189.804 6.612 189.977 6.67733 190.117 6.808C190.257 6.93867 190.327 7.102 190.327 7.298C190.327 7.50333 190.257 7.676 190.117 7.816C189.986 7.956 189.814 8.026 189.599 8.026ZM196.607 9.58C197.204 9.58 197.727 9.69667 198.175 9.93C198.632 10.154 198.987 10.4993 199.239 10.966C199.5 11.4327 199.631 12.0207 199.631 12.73V17H198.637V12.828C198.637 12.0533 198.441 11.47 198.049 11.078C197.666 10.6767 197.125 10.476 196.425 10.476C195.902 10.476 195.445 10.5833 195.053 10.798C194.67 11.0033 194.371 11.3067 194.157 11.708C193.951 12.1 193.849 12.576 193.849 13.136V17H192.855V9.65H193.807V11.666L193.653 11.288C193.886 10.756 194.259 10.3407 194.773 10.042C195.286 9.734 195.897 9.58 196.607 9.58ZM208.416 17L205.112 7.2H206.176L209.27 16.426H208.738L211.93 7.2H212.882L216.032 16.426H215.528L218.65 7.2H219.644L216.34 17H215.248L212.238 8.25H212.518L209.494 17H208.416ZM221.292 17V9.65H222.286V17H221.292ZM221.796 8.026C221.591 8.026 221.418 7.956 221.278 7.816C221.138 7.676 221.068 7.508 221.068 7.312C221.068 7.116 221.138 6.95267 221.278 6.822C221.418 6.682 221.591 6.612 221.796 6.612C222.002 6.612 222.174 6.67733 222.314 6.808C222.454 6.93867 222.524 7.102 222.524 7.298C222.524 7.50333 222.454 7.676 222.314 7.816C222.184 7.956 222.011 8.026 221.796 8.026ZM227.376 17.07C226.685 17.07 226.153 16.8833 225.78 16.51C225.407 16.1367 225.22 15.6093 225.22 14.928V8.026H226.214V14.872C226.214 15.3013 226.321 15.6327 226.536 15.866C226.76 16.0993 227.077 16.216 227.488 16.216C227.927 16.216 228.291 16.09 228.58 15.838L228.93 16.552C228.734 16.7293 228.496 16.86 228.216 16.944C227.945 17.028 227.665 17.07 227.376 17.07ZM223.904 10.476V9.65H228.454V10.476H223.904ZM234.492 9.58C235.089 9.58 235.612 9.69667 236.06 9.93C236.517 10.154 236.872 10.4993 237.124 10.966C237.385 11.4327 237.516 12.0207 237.516 12.73V17H236.522V12.828C236.522 12.0533 236.326 11.47 235.934 11.078C235.551 10.6767 235.01 10.476 234.31 10.476C233.787 10.476 233.33 10.5833 232.938 10.798C232.555 11.0033 232.256 11.3067 232.042 11.708C231.836 12.1 231.734 12.576 231.734 13.136V17H230.74V6.612H231.734V11.666L231.538 11.288C231.771 10.756 232.144 10.3407 232.658 10.042C233.171 9.734 233.782 9.58 234.492 9.58Z" fill="#101316"/>
<rect x="247" y="11.5" width="133" height="1" fill="#A5A9AC" fill-opacity="0.2"/>
</svg>
