<svg width="380" height="56" viewBox="0 0 380 56" fill="none" xmlns="http://www.w3.org/2000/svg">
<rect x="0.5" y="0.5" width="379" height="55" rx="9.5" stroke="#A5A9AC" stroke-opacity="0.2"/>
<path d="M116.272 23.7466C115.482 23.7466 114.26 22.8483 112.972 22.88C111.272 22.9025 109.714 23.8658 108.838 25.3916C107.074 28.4541 108.383 32.9774 110.104 35.4665C110.948 36.6782 111.944 38.0415 113.264 37.999C114.531 37.9449 115.006 37.1765 116.543 37.1765C118.069 37.1765 118.502 37.999 119.843 37.9665C121.207 37.9449 122.073 36.7332 122.907 35.5099C123.87 34.1032 124.27 32.7391 124.292 32.6641C124.259 32.6532 121.64 31.6466 121.608 28.6166C121.587 26.0833 123.675 24.8716 123.772 24.8175C122.582 23.0758 120.753 22.8808 120.114 22.8375C118.447 22.7075 117.052 23.7458 116.272 23.7458V23.7466ZM119.087 21.1916C119.79 20.3483 120.254 19.1692 120.125 18C119.119 18.0433 117.907 18.6708 117.182 19.515C116.532 20.2617 115.97 21.4633 116.121 22.61C117.236 22.6966 118.383 22.0366 119.087 21.1925" fill="#101316"/>
<path d="M140.324 34V22.8H141.508V32.976H147.78V34H140.324ZM152.805 34.08C151.994 34.08 151.264 33.8987 150.613 33.536C149.973 33.1627 149.466 32.656 149.093 32.016C148.72 31.3653 148.533 30.624 148.533 29.792C148.533 28.9493 148.72 28.208 149.093 27.568C149.466 26.928 149.973 26.4267 150.613 26.064C151.253 25.7013 151.984 25.52 152.805 25.52C153.637 25.52 154.373 25.7013 155.013 26.064C155.664 26.4267 156.17 26.928 156.533 27.568C156.906 28.208 157.093 28.9493 157.093 29.792C157.093 30.624 156.906 31.3653 156.533 32.016C156.17 32.656 155.664 33.1627 155.013 33.536C154.362 33.8987 153.626 34.08 152.805 34.08ZM152.805 33.072C153.413 33.072 153.952 32.9387 154.421 32.672C154.89 32.3947 155.258 32.0107 155.525 31.52C155.802 31.0187 155.941 30.4427 155.941 29.792C155.941 29.1307 155.802 28.5547 155.525 28.064C155.258 27.5733 154.89 27.1947 154.421 26.928C153.952 26.6507 153.418 26.512 152.821 26.512C152.224 26.512 151.69 26.6507 151.221 26.928C150.752 27.1947 150.378 27.5733 150.101 28.064C149.824 28.5547 149.685 29.1307 149.685 29.792C149.685 30.4427 149.824 31.0187 150.101 31.52C150.378 32.0107 150.752 32.3947 151.221 32.672C151.69 32.9387 152.218 33.072 152.805 33.072ZM162.996 37.184C162.228 37.184 161.492 37.072 160.788 36.848C160.084 36.624 159.513 36.304 159.076 35.888L159.652 35.024C160.047 35.376 160.532 35.6533 161.108 35.856C161.695 36.0693 162.313 36.176 162.964 36.176C164.031 36.176 164.815 35.9253 165.316 35.424C165.817 34.9333 166.068 34.1653 166.068 33.12V31.024L166.228 29.584L166.116 28.144V25.6H167.204V32.976C167.204 34.4267 166.847 35.488 166.132 36.16C165.428 36.8427 164.383 37.184 162.996 37.184ZM162.788 33.68C161.988 33.68 161.268 33.5093 160.628 33.168C159.988 32.816 159.481 32.3307 159.108 31.712C158.745 31.0933 158.564 30.384 158.564 29.584C158.564 28.784 158.745 28.08 159.108 27.472C159.481 26.8533 159.988 26.3733 160.628 26.032C161.268 25.6907 161.988 25.52 162.788 25.52C163.535 25.52 164.207 25.6747 164.804 25.984C165.401 26.2933 165.876 26.752 166.228 27.36C166.58 27.968 166.756 28.7093 166.756 29.584C166.756 30.4587 166.58 31.2 166.228 31.808C165.876 32.416 165.401 32.88 164.804 33.2C164.207 33.52 163.535 33.68 162.788 33.68ZM162.9 32.672C163.519 32.672 164.068 32.544 164.548 32.288C165.028 32.0213 165.407 31.6587 165.684 31.2C165.961 30.7307 166.1 30.192 166.1 29.584C166.1 28.976 165.961 28.4427 165.684 27.984C165.407 27.5253 165.028 27.168 164.548 26.912C164.068 26.6453 163.519 26.512 162.9 26.512C162.292 26.512 161.743 26.6453 161.252 26.912C160.772 27.168 160.393 27.5253 160.116 27.984C159.849 28.4427 159.716 28.976 159.716 29.584C159.716 30.192 159.849 30.7307 160.116 31.2C160.393 31.6587 160.772 32.0213 161.252 32.288C161.743 32.544 162.292 32.672 162.9 32.672ZM170.365 34V25.6H171.501V34H170.365ZM170.941 23.744C170.707 23.744 170.509 23.664 170.349 23.504C170.189 23.344 170.109 23.152 170.109 22.928C170.109 22.704 170.189 22.5173 170.349 22.368C170.509 22.208 170.707 22.128 170.941 22.128C171.176 22.128 171.373 22.2027 171.533 22.352C171.693 22.5013 171.773 22.688 171.773 22.912C171.773 23.1467 171.693 23.344 171.533 23.504C171.384 23.664 171.187 23.744 170.941 23.744ZM178.95 25.52C179.633 25.52 180.23 25.6533 180.742 25.92C181.265 26.176 181.67 26.5707 181.958 27.104C182.257 27.6373 182.406 28.3093 182.406 29.12V34H181.27V29.232C181.27 28.3467 181.046 27.68 180.598 27.232C180.161 26.7733 179.542 26.544 178.742 26.544C178.145 26.544 177.622 26.6667 177.174 26.912C176.737 27.1467 176.395 27.4933 176.15 27.952C175.915 28.4 175.798 28.944 175.798 29.584V34H174.662V25.6H175.75V27.904L175.574 27.472C175.841 26.864 176.267 26.3893 176.854 26.048C177.441 25.696 178.139 25.52 178.95 25.52ZM191.374 34L188.206 25.6H189.294L192.174 33.392H191.678L194.638 25.6H195.614L198.542 33.392H198.046L200.974 25.6H202.014L198.83 34H197.758L194.942 26.672H195.278L192.446 34H191.374ZM203.725 34V25.6H204.861V34H203.725ZM204.301 23.744C204.066 23.744 203.869 23.664 203.709 23.504C203.549 23.344 203.469 23.152 203.469 22.928C203.469 22.704 203.549 22.5173 203.709 22.368C203.869 22.208 204.066 22.128 204.301 22.128C204.535 22.128 204.733 22.2027 204.893 22.352C205.053 22.5013 205.133 22.688 205.133 22.912C205.133 23.1467 205.053 23.344 204.893 23.504C204.743 23.664 204.546 23.744 204.301 23.744ZM210.678 34.08C209.888 34.08 209.28 33.8667 208.854 33.44C208.427 33.0133 208.214 32.4107 208.214 31.632V23.744H209.35V31.568C209.35 32.0587 209.472 32.4373 209.718 32.704C209.974 32.9707 210.336 33.104 210.806 33.104C211.307 33.104 211.723 32.96 212.054 32.672L212.454 33.488C212.23 33.6907 211.958 33.84 211.638 33.936C211.328 34.032 211.008 34.08 210.678 34.08ZM206.71 26.544V25.6H211.91V26.544H206.71ZM218.81 25.52C219.492 25.52 220.09 25.6533 220.602 25.92C221.124 26.176 221.53 26.5707 221.818 27.104C222.116 27.6373 222.266 28.3093 222.266 29.12V34H221.13V29.232C221.13 28.3467 220.906 27.68 220.458 27.232C220.02 26.7733 219.402 26.544 218.602 26.544C218.004 26.544 217.482 26.6667 217.034 26.912C216.596 27.1467 216.255 27.4933 216.01 27.952C215.775 28.4 215.658 28.944 215.658 29.584V34H214.522V22.128H215.658V27.904L215.434 27.472C215.7 26.864 216.127 26.3893 216.714 26.048C217.3 25.696 217.999 25.52 218.81 25.52ZM227.97 34L233.09 22.8H234.258L239.378 34H238.13L233.426 23.488H233.906L229.202 34H227.97ZM229.986 31.008L230.338 30.048H236.85L237.202 31.008H229.986ZM245.326 34.08C244.601 34.08 243.945 33.9147 243.358 33.584C242.772 33.2427 242.302 32.7573 241.95 32.128C241.609 31.488 241.438 30.7093 241.438 29.792C241.438 28.8747 241.609 28.1013 241.95 27.472C242.292 26.832 242.756 26.3467 243.342 26.016C243.929 25.6853 244.59 25.52 245.326 25.52C246.126 25.52 246.841 25.7013 247.47 26.064C248.11 26.416 248.612 26.9173 248.974 27.568C249.337 28.208 249.518 28.9493 249.518 29.792C249.518 30.6453 249.337 31.392 248.974 32.032C248.612 32.672 248.11 33.1733 247.47 33.536C246.841 33.8987 246.126 34.08 245.326 34.08ZM240.99 37.104V25.6H242.078V28.128L241.966 29.808L242.126 31.504V37.104H240.99ZM245.246 33.072C245.844 33.072 246.377 32.9387 246.846 32.672C247.316 32.3947 247.689 32.0107 247.966 31.52C248.244 31.0187 248.382 30.4427 248.382 29.792C248.382 29.1413 248.244 28.5707 247.966 28.08C247.689 27.5893 247.316 27.2053 246.846 26.928C246.377 26.6507 245.844 26.512 245.246 26.512C244.649 26.512 244.11 26.6507 243.63 26.928C243.161 27.2053 242.788 27.5893 242.51 28.08C242.244 28.5707 242.11 29.1413 242.11 29.792C242.11 30.4427 242.244 31.0187 242.51 31.52C242.788 32.0107 243.161 32.3947 243.63 32.672C244.11 32.9387 244.649 33.072 245.246 33.072ZM256.17 34.08C255.445 34.08 254.789 33.9147 254.202 33.584C253.615 33.2427 253.146 32.7573 252.794 32.128C252.453 31.488 252.282 30.7093 252.282 29.792C252.282 28.8747 252.453 28.1013 252.794 27.472C253.135 26.832 253.599 26.3467 254.186 26.016C254.773 25.6853 255.434 25.52 256.17 25.52C256.97 25.52 257.685 25.7013 258.314 26.064C258.954 26.416 259.455 26.9173 259.818 27.568C260.181 28.208 260.362 28.9493 260.362 29.792C260.362 30.6453 260.181 31.392 259.818 32.032C259.455 32.672 258.954 33.1733 258.314 33.536C257.685 33.8987 256.97 34.08 256.17 34.08ZM251.834 37.104V25.6H252.922V28.128L252.81 29.808L252.97 31.504V37.104H251.834ZM256.09 33.072C256.687 33.072 257.221 32.9387 257.69 32.672C258.159 32.3947 258.533 32.0107 258.81 31.52C259.087 31.0187 259.226 30.4427 259.226 29.792C259.226 29.1413 259.087 28.5707 258.81 28.08C258.533 27.5893 258.159 27.2053 257.69 26.928C257.221 26.6507 256.687 26.512 256.09 26.512C255.493 26.512 254.954 26.6507 254.474 26.928C254.005 27.2053 253.631 27.5893 253.354 28.08C253.087 28.5707 252.954 29.1413 252.954 29.792C252.954 30.4427 253.087 31.0187 253.354 31.52C253.631 32.0107 254.005 32.3947 254.474 32.672C254.954 32.9387 255.493 33.072 256.09 33.072ZM262.678 34V22.128H263.814V34H262.678ZM270.543 34.08C269.668 34.08 268.9 33.8987 268.239 33.536C267.577 33.1627 267.06 32.656 266.687 32.016C266.313 31.3653 266.127 30.624 266.127 29.792C266.127 28.96 266.303 28.224 266.655 27.584C267.017 26.944 267.508 26.4427 268.127 26.08C268.756 25.7067 269.46 25.52 270.239 25.52C271.028 25.52 271.727 25.7013 272.335 26.064C272.953 26.416 273.439 26.9173 273.791 27.568C274.143 28.208 274.319 28.9493 274.319 29.792C274.319 29.8453 274.313 29.904 274.303 29.968C274.303 30.0213 274.303 30.08 274.303 30.144H266.991V29.296H273.695L273.247 29.632C273.247 29.024 273.113 28.4853 272.847 28.016C272.591 27.536 272.239 27.1627 271.791 26.896C271.343 26.6293 270.825 26.496 270.239 26.496C269.663 26.496 269.145 26.6293 268.687 26.896C268.228 27.1627 267.871 27.536 267.615 28.016C267.359 28.496 267.231 29.0453 267.231 29.664V29.84C267.231 30.48 267.369 31.0453 267.647 31.536C267.935 32.016 268.329 32.3947 268.831 32.672C269.343 32.9387 269.924 33.072 270.575 33.072C271.087 33.072 271.561 32.9813 271.999 32.8C272.447 32.6187 272.831 32.3413 273.151 31.968L273.791 32.704C273.417 33.152 272.948 33.4933 272.383 33.728C271.828 33.9627 271.215 34.08 270.543 34.08Z" fill="#101316"/>
</svg>
