<svg width="380" height="56" viewBox="0 0 380 56" fill="none" xmlns="http://www.w3.org/2000/svg">
<rect x="0.5" y="0.5" width="379" height="55" rx="9.5" stroke="#A5A9AC" stroke-opacity="0.2"/>
<path fill-rule="evenodd" clip-rule="evenodd" d="M120.312 28.2047C120.312 27.5665 120.255 26.9529 120.149 26.3638H111.672V29.8452H116.516C116.307 30.9702 115.673 31.9234 114.72 32.5616V34.8198H117.629C119.33 33.253 120.312 30.9457 120.312 28.2047Z" fill="#4285F4"/>
<path fill-rule="evenodd" clip-rule="evenodd" d="M111.672 37.0001C114.102 37.0001 116.14 36.1942 117.629 34.8196L114.72 32.5614C113.914 33.1014 112.883 33.4205 111.672 33.4205C109.328 33.4205 107.344 31.8373 106.636 29.71H103.629V32.0418C105.11 34.9832 108.154 37.0001 111.672 37.0001Z" fill="#34A853"/>
<path fill-rule="evenodd" clip-rule="evenodd" d="M106.636 29.7102C106.456 29.1702 106.354 28.5933 106.354 28.0001C106.354 27.4069 106.456 26.8301 106.636 26.2901V23.9583H103.629C103.02 25.1733 102.672 26.5478 102.672 28.0001C102.672 29.4524 103.02 30.827 103.629 32.042L106.636 29.7102Z" fill="#FBBC05"/>
<path fill-rule="evenodd" clip-rule="evenodd" d="M111.672 22.5796C112.994 22.5796 114.18 23.0337 115.113 23.9255L117.694 21.3441C116.135 19.8918 114.098 19 111.672 19C108.154 19 105.11 21.0168 103.629 23.9583L106.636 26.2901C107.344 24.1628 109.328 22.5796 111.672 22.5796Z" fill="#EA4335"/>
<path d="M135.324 34V22.8H136.508V32.976H142.78V34H135.324ZM147.805 34.08C146.994 34.08 146.264 33.8987 145.613 33.536C144.973 33.1627 144.466 32.656 144.093 32.016C143.72 31.3653 143.533 30.624 143.533 29.792C143.533 28.9493 143.72 28.208 144.093 27.568C144.466 26.928 144.973 26.4267 145.613 26.064C146.253 25.7013 146.984 25.52 147.805 25.52C148.637 25.52 149.373 25.7013 150.013 26.064C150.664 26.4267 151.17 26.928 151.533 27.568C151.906 28.208 152.093 28.9493 152.093 29.792C152.093 30.624 151.906 31.3653 151.533 32.016C151.17 32.656 150.664 33.1627 150.013 33.536C149.362 33.8987 148.626 34.08 147.805 34.08ZM147.805 33.072C148.413 33.072 148.952 32.9387 149.421 32.672C149.89 32.3947 150.258 32.0107 150.525 31.52C150.802 31.0187 150.941 30.4427 150.941 29.792C150.941 29.1307 150.802 28.5547 150.525 28.064C150.258 27.5733 149.89 27.1947 149.421 26.928C148.952 26.6507 148.418 26.512 147.821 26.512C147.224 26.512 146.69 26.6507 146.221 26.928C145.752 27.1947 145.378 27.5733 145.101 28.064C144.824 28.5547 144.685 29.1307 144.685 29.792C144.685 30.4427 144.824 31.0187 145.101 31.52C145.378 32.0107 145.752 32.3947 146.221 32.672C146.69 32.9387 147.218 33.072 147.805 33.072ZM157.996 37.184C157.228 37.184 156.492 37.072 155.788 36.848C155.084 36.624 154.513 36.304 154.076 35.888L154.652 35.024C155.047 35.376 155.532 35.6533 156.108 35.856C156.695 36.0693 157.313 36.176 157.964 36.176C159.031 36.176 159.815 35.9253 160.316 35.424C160.817 34.9333 161.068 34.1653 161.068 33.12V31.024L161.228 29.584L161.116 28.144V25.6H162.204V32.976C162.204 34.4267 161.847 35.488 161.132 36.16C160.428 36.8427 159.383 37.184 157.996 37.184ZM157.788 33.68C156.988 33.68 156.268 33.5093 155.628 33.168C154.988 32.816 154.481 32.3307 154.108 31.712C153.745 31.0933 153.564 30.384 153.564 29.584C153.564 28.784 153.745 28.08 154.108 27.472C154.481 26.8533 154.988 26.3733 155.628 26.032C156.268 25.6907 156.988 25.52 157.788 25.52C158.535 25.52 159.207 25.6747 159.804 25.984C160.401 26.2933 160.876 26.752 161.228 27.36C161.58 27.968 161.756 28.7093 161.756 29.584C161.756 30.4587 161.58 31.2 161.228 31.808C160.876 32.416 160.401 32.88 159.804 33.2C159.207 33.52 158.535 33.68 157.788 33.68ZM157.9 32.672C158.519 32.672 159.068 32.544 159.548 32.288C160.028 32.0213 160.407 31.6587 160.684 31.2C160.961 30.7307 161.1 30.192 161.1 29.584C161.1 28.976 160.961 28.4427 160.684 27.984C160.407 27.5253 160.028 27.168 159.548 26.912C159.068 26.6453 158.519 26.512 157.9 26.512C157.292 26.512 156.743 26.6453 156.252 26.912C155.772 27.168 155.393 27.5253 155.116 27.984C154.849 28.4427 154.716 28.976 154.716 29.584C154.716 30.192 154.849 30.7307 155.116 31.2C155.393 31.6587 155.772 32.0213 156.252 32.288C156.743 32.544 157.292 32.672 157.9 32.672ZM165.365 34V25.6H166.501V34H165.365ZM165.941 23.744C165.707 23.744 165.509 23.664 165.349 23.504C165.189 23.344 165.109 23.152 165.109 22.928C165.109 22.704 165.189 22.5173 165.349 22.368C165.509 22.208 165.707 22.128 165.941 22.128C166.176 22.128 166.373 22.2027 166.533 22.352C166.693 22.5013 166.773 22.688 166.773 22.912C166.773 23.1467 166.693 23.344 166.533 23.504C166.384 23.664 166.187 23.744 165.941 23.744ZM173.95 25.52C174.633 25.52 175.23 25.6533 175.742 25.92C176.265 26.176 176.67 26.5707 176.958 27.104C177.257 27.6373 177.406 28.3093 177.406 29.12V34H176.27V29.232C176.27 28.3467 176.046 27.68 175.598 27.232C175.161 26.7733 174.542 26.544 173.742 26.544C173.145 26.544 172.622 26.6667 172.174 26.912C171.737 27.1467 171.395 27.4933 171.15 27.952C170.915 28.4 170.798 28.944 170.798 29.584V34H169.662V25.6H170.75V27.904L170.574 27.472C170.841 26.864 171.267 26.3893 171.854 26.048C172.441 25.696 173.139 25.52 173.95 25.52ZM186.374 34L183.206 25.6H184.294L187.174 33.392H186.678L189.638 25.6H190.614L193.542 33.392H193.046L195.974 25.6H197.014L193.83 34H192.758L189.942 26.672H190.278L187.446 34H186.374ZM198.725 34V25.6H199.861V34H198.725ZM199.301 23.744C199.066 23.744 198.869 23.664 198.709 23.504C198.549 23.344 198.469 23.152 198.469 22.928C198.469 22.704 198.549 22.5173 198.709 22.368C198.869 22.208 199.066 22.128 199.301 22.128C199.535 22.128 199.733 22.2027 199.893 22.352C200.053 22.5013 200.133 22.688 200.133 22.912C200.133 23.1467 200.053 23.344 199.893 23.504C199.743 23.664 199.546 23.744 199.301 23.744ZM205.678 34.08C204.888 34.08 204.28 33.8667 203.854 33.44C203.427 33.0133 203.214 32.4107 203.214 31.632V23.744H204.35V31.568C204.35 32.0587 204.472 32.4373 204.718 32.704C204.974 32.9707 205.336 33.104 205.806 33.104C206.307 33.104 206.723 32.96 207.054 32.672L207.454 33.488C207.23 33.6907 206.958 33.84 206.638 33.936C206.328 34.032 206.008 34.08 205.678 34.08ZM201.71 26.544V25.6H206.91V26.544H201.71ZM213.81 25.52C214.492 25.52 215.09 25.6533 215.602 25.92C216.124 26.176 216.53 26.5707 216.818 27.104C217.116 27.6373 217.266 28.3093 217.266 29.12V34H216.13V29.232C216.13 28.3467 215.906 27.68 215.458 27.232C215.02 26.7733 214.402 26.544 213.602 26.544C213.004 26.544 212.482 26.6667 212.034 26.912C211.596 27.1467 211.255 27.4933 211.01 27.952C210.775 28.4 210.658 28.944 210.658 29.584V34H209.522V22.128H210.658V27.904L210.434 27.472C210.7 26.864 211.127 26.3893 211.714 26.048C212.3 25.696 212.999 25.52 213.81 25.52ZM229.674 34.096C228.82 34.096 228.031 33.9573 227.306 33.68C226.591 33.392 225.967 32.992 225.434 32.48C224.911 31.968 224.5 31.3653 224.202 30.672C223.914 29.9787 223.77 29.2213 223.77 28.4C223.77 27.5787 223.914 26.8213 224.202 26.128C224.5 25.4347 224.916 24.832 225.45 24.32C225.983 23.808 226.607 23.4133 227.322 23.136C228.047 22.848 228.836 22.704 229.69 22.704C230.543 22.704 231.322 22.8373 232.026 23.104C232.74 23.3707 233.348 23.776 233.85 24.32L233.114 25.072C232.644 24.6027 232.127 24.2667 231.562 24.064C230.996 23.8613 230.388 23.76 229.738 23.76C229.044 23.76 228.404 23.8773 227.818 24.112C227.242 24.336 226.735 24.6613 226.298 25.088C225.871 25.504 225.535 25.9947 225.289 26.56C225.055 27.1147 224.938 27.728 224.938 28.4C224.938 29.0613 225.055 29.6747 225.289 30.24C225.535 30.8053 225.871 31.3013 226.298 31.728C226.735 32.144 227.242 32.4693 227.818 32.704C228.404 32.928 229.039 33.04 229.722 33.04C230.362 33.04 230.964 32.944 231.53 32.752C232.106 32.56 232.634 32.2347 233.114 31.776L233.786 32.672C233.252 33.1413 232.628 33.4987 231.914 33.744C231.199 33.9787 230.452 34.096 229.674 34.096ZM232.65 32.528V28.4H233.786V32.672L232.65 32.528ZM240.321 34.08C239.51 34.08 238.779 33.8987 238.129 33.536C237.489 33.1627 236.982 32.656 236.609 32.016C236.235 31.3653 236.049 30.624 236.049 29.792C236.049 28.9493 236.235 28.208 236.609 27.568C236.982 26.928 237.489 26.4267 238.129 26.064C238.769 25.7013 239.499 25.52 240.321 25.52C241.153 25.52 241.889 25.7013 242.529 26.064C243.179 26.4267 243.686 26.928 244.049 27.568C244.422 28.208 244.609 28.9493 244.609 29.792C244.609 30.624 244.422 31.3653 244.049 32.016C243.686 32.656 243.179 33.1627 242.529 33.536C241.878 33.8987 241.142 34.08 240.321 34.08ZM240.321 33.072C240.929 33.072 241.467 32.9387 241.937 32.672C242.406 32.3947 242.774 32.0107 243.041 31.52C243.318 31.0187 243.457 30.4427 243.457 29.792C243.457 29.1307 243.318 28.5547 243.041 28.064C242.774 27.5733 242.406 27.1947 241.937 26.928C241.467 26.6507 240.934 26.512 240.337 26.512C239.739 26.512 239.206 26.6507 238.737 26.928C238.267 27.1947 237.894 27.5733 237.617 28.064C237.339 28.5547 237.201 29.1307 237.201 29.792C237.201 30.4427 237.339 31.0187 237.617 31.52C237.894 32.0107 238.267 32.3947 238.737 32.672C239.206 32.9387 239.734 33.072 240.321 33.072ZM250.352 34.08C249.541 34.08 248.81 33.8987 248.16 33.536C247.52 33.1627 247.013 32.656 246.64 32.016C246.266 31.3653 246.08 30.624 246.08 29.792C246.08 28.9493 246.266 28.208 246.64 27.568C247.013 26.928 247.52 26.4267 248.16 26.064C248.8 25.7013 249.53 25.52 250.352 25.52C251.184 25.52 251.92 25.7013 252.56 26.064C253.21 26.4267 253.717 26.928 254.08 27.568C254.453 28.208 254.64 28.9493 254.64 29.792C254.64 30.624 254.453 31.3653 254.08 32.016C253.717 32.656 253.21 33.1627 252.56 33.536C251.909 33.8987 251.173 34.08 250.352 34.08ZM250.352 33.072C250.96 33.072 251.498 32.9387 251.968 32.672C252.437 32.3947 252.805 32.0107 253.072 31.52C253.349 31.0187 253.488 30.4427 253.488 29.792C253.488 29.1307 253.349 28.5547 253.072 28.064C252.805 27.5733 252.437 27.1947 251.968 26.928C251.498 26.6507 250.965 26.512 250.368 26.512C249.77 26.512 249.237 26.6507 248.768 26.928C248.298 27.1947 247.925 27.5733 247.648 28.064C247.37 28.5547 247.232 29.1307 247.232 29.792C247.232 30.4427 247.37 31.0187 247.648 31.52C247.925 32.0107 248.298 32.3947 248.768 32.672C249.237 32.9387 249.765 33.072 250.352 33.072ZM260.543 37.184C259.775 37.184 259.039 37.072 258.335 36.848C257.631 36.624 257.06 36.304 256.623 35.888L257.199 35.024C257.594 35.376 258.079 35.6533 258.655 35.856C259.242 36.0693 259.86 36.176 260.511 36.176C261.578 36.176 262.362 35.9253 262.863 35.424C263.364 34.9333 263.615 34.1653 263.615 33.12V31.024L263.775 29.584L263.663 28.144V25.6H264.751V32.976C264.751 34.4267 264.394 35.488 263.679 36.16C262.975 36.8427 261.93 37.184 260.543 37.184ZM260.335 33.68C259.535 33.68 258.815 33.5093 258.175 33.168C257.535 32.816 257.028 32.3307 256.655 31.712C256.292 31.0933 256.111 30.384 256.111 29.584C256.111 28.784 256.292 28.08 256.655 27.472C257.028 26.8533 257.535 26.3733 258.175 26.032C258.815 25.6907 259.535 25.52 260.335 25.52C261.082 25.52 261.754 25.6747 262.351 25.984C262.948 26.2933 263.423 26.752 263.775 27.36C264.127 27.968 264.303 28.7093 264.303 29.584C264.303 30.4587 264.127 31.2 263.775 31.808C263.423 32.416 262.948 32.88 262.351 33.2C261.754 33.52 261.082 33.68 260.335 33.68ZM260.447 32.672C261.066 32.672 261.615 32.544 262.095 32.288C262.575 32.0213 262.954 31.6587 263.231 31.2C263.508 30.7307 263.647 30.192 263.647 29.584C263.647 28.976 263.508 28.4427 263.231 27.984C262.954 27.5253 262.575 27.168 262.095 26.912C261.615 26.6453 261.066 26.512 260.447 26.512C259.839 26.512 259.29 26.6453 258.799 26.912C258.319 27.168 257.94 27.5253 257.663 27.984C257.396 28.4427 257.263 28.976 257.263 29.584C257.263 30.192 257.396 30.7307 257.663 31.2C257.94 31.6587 258.319 32.0213 258.799 32.288C259.29 32.544 259.839 32.672 260.447 32.672ZM267.912 34V22.128H269.048V34H267.912ZM275.777 34.08C274.902 34.08 274.134 33.8987 273.473 33.536C272.812 33.1627 272.294 32.656 271.921 32.016C271.548 31.3653 271.361 30.624 271.361 29.792C271.361 28.96 271.537 28.224 271.889 27.584C272.252 26.944 272.742 26.4427 273.361 26.08C273.99 25.7067 274.694 25.52 275.473 25.52C276.262 25.52 276.961 25.7013 277.569 26.064C278.188 26.416 278.673 26.9173 279.025 27.568C279.377 28.208 279.553 28.9493 279.553 29.792C279.553 29.8453 279.548 29.904 279.537 29.968C279.537 30.0213 279.537 30.08 279.537 30.144H272.225V29.296H278.929L278.481 29.632C278.481 29.024 278.348 28.4853 278.081 28.016C277.825 27.536 277.473 27.1627 277.025 26.896C276.577 26.6293 276.06 26.496 275.473 26.496C274.897 26.496 274.38 26.6293 273.921 26.896C273.462 27.1627 273.105 27.536 272.849 28.016C272.593 28.496 272.465 29.0453 272.465 29.664V29.84C272.465 30.48 272.604 31.0453 272.881 31.536C273.169 32.016 273.564 32.3947 274.065 32.672C274.577 32.9387 275.158 33.072 275.809 33.072C276.321 33.072 276.796 32.9813 277.233 32.8C277.681 32.6187 278.065 32.3413 278.385 31.968L279.025 32.704C278.652 33.152 278.182 33.4933 277.617 33.728C277.062 33.9627 276.449 34.08 275.777 34.08Z" fill="#101316"/>
</svg>
