<svg width="56" height="56" viewBox="0 0 56 56" fill="none" xmlns="http://www.w3.org/2000/svg">
<rect x="0.5" y="0.5" width="55" height="55" rx="9.5" stroke="#A5A9AC" stroke-opacity="0.2"/>
<path fill-rule="evenodd" clip-rule="evenodd" d="M23 18C20.2386 18 18 20.2386 18 23V33C18 35.7614 20.2386 38 23 38H33C35.7614 38 38 35.7614 38 33V23C38 20.2386 35.7614 18 33 18H23ZM34 23C34.5523 23 35 22.5523 35 22C35 21.4477 34.5523 21 34 21C33.4477 21 33 21.4477 33 22C33 22.5523 33.4477 23 34 23ZM33 28C33 30.7614 30.7614 33 28 33C25.2386 33 23 30.7614 23 28C23 25.2386 25.2386 23 28 23C30.7614 23 33 25.2386 33 28ZM28 31C29.6569 31 31 29.6569 31 28C31 26.3431 29.6569 25 28 25C26.3431 25 25 26.3431 25 28C25 29.6569 26.3431 31 28 31Z" fill="#101316"/>
</svg>
