<svg width="156" height="22" viewBox="0 0 156 22" fill="none" xmlns="http://www.w3.org/2000/svg">
<path d="M137.314 21.36V0.359985H146.404C148.284 0.359985 149.904 0.669986 151.264 1.28999C152.624 1.88999 153.674 2.75999 154.414 3.89999C155.154 5.03999 155.524 6.39999 155.524 7.97999C155.524 9.53999 155.154 10.89 154.414 12.03C153.674 13.17 152.624 14.05 151.264 14.67C149.904 15.27 148.284 15.57 146.404 15.57H140.014L142.174 13.38V21.36H137.314ZM142.174 13.92L140.014 11.61H146.134C147.634 11.61 148.754 11.29 149.494 10.65C150.234 10.01 150.604 9.11999 150.604 7.97999C150.604 6.81999 150.234 5.91999 149.494 5.27999C148.754 4.63999 147.634 4.31999 146.134 4.31999H140.014L142.174 2.00999V13.92Z" fill="#101316"/>
<path d="M123.119 21.36V4.31999H116.399V0.359985H134.699V4.31999H127.979V21.36H123.119Z" fill="#101316"/>
<path d="M103.95 21.72C102.29 21.72 100.75 21.45 99.3299 20.91C97.9299 20.37 96.7099 19.61 95.6699 18.63C94.6499 17.65 93.8499 16.5 93.2699 15.18C92.7099 13.86 92.4299 12.42 92.4299 10.86C92.4299 9.3 92.7099 7.86 93.2699 6.54C93.8499 5.22 94.6599 4.07 95.6999 3.09C96.7399 2.11 97.9599 1.35 99.3599 0.809999C100.76 0.27 102.28 0 103.92 0C105.58 0 107.1 0.27 108.48 0.809999C109.88 1.35 111.09 2.11 112.11 3.09C113.15 4.07 113.96 5.22 114.54 6.54C115.12 7.84 115.41 9.28 115.41 10.86C115.41 12.42 115.12 13.87 114.54 15.21C113.96 16.53 113.15 17.68 112.11 18.66C111.09 19.62 109.88 20.37 108.48 20.91C107.1 21.45 105.59 21.72 103.95 21.72ZM103.92 17.58C104.86 17.58 105.72 17.42 106.5 17.1C107.3 16.78 108 16.32 108.6 15.72C109.2 15.12 109.66 14.41 109.98 13.59C110.32 12.77 110.49 11.86 110.49 10.86C110.49 9.86 110.32 8.95 109.98 8.13C109.66 7.31 109.2 6.6 108.6 6C108.02 5.4 107.33 4.94 106.53 4.62C105.73 4.3 104.86 4.14 103.92 4.14C102.98 4.14 102.11 4.3 101.31 4.62C100.53 4.94 99.8399 5.4 99.2399 6C98.6399 6.6 98.1699 7.31 97.8299 8.13C97.5099 8.95 97.3499 9.86 97.3499 10.86C97.3499 11.84 97.5099 12.75 97.8299 13.59C98.1699 14.41 98.6299 15.12 99.2099 15.72C99.8099 16.32 100.51 16.78 101.31 17.1C102.11 17.42 102.98 17.58 103.92 17.58Z" fill="#101316"/>
<path d="M72.0039 21.36V5.21998H76.4739V9.77998L75.8439 8.45998C76.3239 7.31998 77.0939 6.45998 78.1539 5.87998C79.2139 5.27998 80.5039 4.97998 82.0239 4.97998V9.29998C81.8239 9.27998 81.6439 9.26998 81.4839 9.26998C81.3239 9.24998 81.1539 9.23998 80.9739 9.23998C79.6939 9.23998 78.6539 9.60998 77.8539 10.35C77.0739 11.07 76.6839 12.2 76.6839 13.74V21.36H72.0039Z" fill="#101316"/>
<path d="M61.0882 21.6C59.2482 21.6 57.6282 21.24 56.2282 20.52C54.8482 19.8 53.7782 18.82 53.0182 17.58C52.2582 16.32 51.8782 14.89 51.8782 13.29C51.8782 11.67 52.2482 10.24 52.9882 8.99998C53.7482 7.73998 54.7782 6.75998 56.0782 6.05998C57.3782 5.33998 58.8482 4.97998 60.4882 4.97998C62.0682 4.97998 63.4882 5.31998 64.7482 5.99998C66.0282 6.65998 67.0382 7.61998 67.7782 8.87998C68.5182 10.12 68.8882 11.61 68.8882 13.35C68.8882 13.53 68.8782 13.74 68.8582 13.98C68.8382 14.2 68.8182 14.41 68.7982 14.61H55.6882V11.88H66.3382L64.5382 12.69C64.5382 11.85 64.3682 11.12 64.0282 10.5C63.6882 9.87998 63.2182 9.39998 62.6182 9.05998C62.0182 8.69998 61.3182 8.51998 60.5182 8.51998C59.7182 8.51998 59.0082 8.69998 58.3882 9.05998C57.7882 9.39998 57.3182 9.88998 56.9782 10.53C56.6382 11.15 56.4682 11.89 56.4682 12.75V13.47C56.4682 14.35 56.6582 15.13 57.0382 15.81C57.4382 16.47 57.9882 16.98 58.6882 17.34C59.4082 17.68 60.2482 17.85 61.2082 17.85C62.0682 17.85 62.8182 17.72 63.4582 17.46C64.1182 17.2 64.7182 16.81 65.2582 16.29L67.7482 18.99C67.0082 19.83 66.0782 20.48 64.9582 20.94C63.8382 21.38 62.5482 21.6 61.0882 21.6Z" fill="#101316"/>
<path d="M47.1391 21.6C45.2391 21.6 43.7591 21.12 42.6991 20.16C41.6391 19.18 41.1091 17.73 41.1091 15.81V1.65002H45.7891V15.75C45.7891 16.43 45.9691 16.96 46.3291 17.34C46.6891 17.7 47.1791 17.88 47.7991 17.88C48.5391 17.88 49.1691 17.68 49.6891 17.28L50.9491 20.58C50.4691 20.92 49.8891 21.18 49.2091 21.36C48.5491 21.52 47.8591 21.6 47.1391 21.6ZM38.6191 9.18002V5.58002H49.8091V9.18002H38.6191Z" fill="#101316"/>
<path d="M29.6069 4.97998C30.8869 4.97998 32.0269 5.23998 33.0269 5.75998C34.0469 6.25998 34.8469 7.03998 35.4269 8.09998C36.0069 9.13998 36.2969 10.48 36.2969 12.12V21.36H31.6169V12.84C31.6169 11.54 31.3269 10.58 30.7469 9.95998C30.1869 9.33998 29.3869 9.02998 28.3469 9.02998C27.6069 9.02998 26.9369 9.18998 26.3369 9.50998C25.7569 9.80998 25.2969 10.28 24.9569 10.92C24.6369 11.56 24.4769 12.38 24.4769 13.38V21.36H19.7969V5.21998H24.2669V9.68998L23.4269 8.33998C24.0069 7.25998 24.8369 6.42998 25.9169 5.84998C26.9969 5.26998 28.2269 4.97998 29.6069 4.97998Z" fill="#101316"/>
<path d="M4.47 8.81999H14.58V12.6H4.47V8.81999ZM4.83 17.46H16.26V21.36H0V0.359985H15.87V4.25999H4.83V17.46Z" fill="#101316"/>
</svg>
