<svg width="30" height="34" viewBox="0 0 30 34" fill="none" xmlns="http://www.w3.org/2000/svg">
<path d="M28.5 18.5V21.5C28.5 23.9853 26.4853 26 24 26C21.5147 26 19.5 23.9853 19.5 21.5V18.5C19.5 16.0147 21.5147 14 24 14C26.4853 14 28.5 16.0147 28.5 18.5ZM28.5 18.5V15.5C28.5 8.04416 22.4558 2 15 2C7.54416 2 1.5 8.04416 1.5 15.5V18.5M1.5 18.5V21.5C1.5 23.9853 3.51472 26 6 26C8.48528 26 10.5 23.9853 10.5 21.5V18.5C10.5 16.0147 8.48528 14 6 14C3.51472 14 1.5 16.0147 1.5 18.5ZM28.5 20V23C28.5 27.9706 24.4706 32 19.5 32H15" stroke="#101316" stroke-width="2.25" stroke-linecap="round" stroke-linejoin="round"/>
</svg>
