<svg width="34" height="30" viewBox="0 0 34 30" fill="none" xmlns="http://www.w3.org/2000/svg">
<path d="M20 25.5V7.5M20 25.5H23M20 25.5H12.5M20 7.5C20 4.18629 17.3137 1.5 14 1.5H8C4.68629 1.5 2 4.18629 2 7.5V19.5C2 22.2978 3.915 24.6484 6.50577 25.3125M20 7.5H24.8137C25.5758 7.5 26.3094 7.7901 26.8655 8.31139L31.0518 12.2361C31.6568 12.8032 32 13.5955 32 14.4247V22.5C32 24.1569 30.6569 25.5 29 25.5M29 25.5C29 27.1569 27.6569 28.5 26 28.5C24.3431 28.5 23 27.1569 23 25.5M29 25.5C29 23.8431 27.6569 22.5 26 22.5C24.3431 22.5 23 23.8431 23 25.5M12.5 25.5C12.5 27.1569 11.1569 28.5 9.5 28.5C7.84315 28.5 6.5 27.1569 6.5 25.5C6.5 25.437 6.50194 25.3745 6.50577 25.3125M12.5 25.5C12.5 23.8431 11.1569 22.5 9.5 22.5C7.90613 22.5 6.60258 23.743 6.50577 25.3125" stroke="#101316" stroke-width="2.25"/>
</svg>
