<svg width="56" height="56" viewBox="0 0 56 56" fill="none" xmlns="http://www.w3.org/2000/svg">
<rect x="0.5" y="0.5" width="55" height="55" rx="9.5" stroke="#A5A9AC" stroke-opacity="0.2"/>
<path d="M31.2861 20C29.1822 20 27.4767 21.7909 27.4767 24C27.4767 24.3338 27.5157 24.6581 27.589 24.9681C25.5661 24.9681 22.5191 24.5591 19.9744 22.0096C19.6361 21.6706 19.0121 21.8973 19.0356 22.3757C19.4127 30.0627 22.7048 32.3049 24.4001 32.4444C23.3054 33.5257 21.7151 34.3791 20.1149 34.7622C19.6926 34.8633 19.5882 35.3256 20.0012 35.4599C21.1462 35.8323 22.7852 35.9758 23.6673 36C29.9082 36 34.9806 30.7471 35.0935 24.2223C35.9129 23.6894 36.4377 22.5325 36.7326 21.7129C36.8044 21.5133 36.4773 21.2807 36.2815 21.3623C35.6694 21.6171 34.8923 21.6775 34.2304 21.4618C33.5318 20.5693 32.4722 20 31.2861 20Z" fill="#101316"/>
</svg>
